<svg xmlns="http://www.w3.org/2000/svg" viewBox="0 0 95.66 14.5"><defs><style>.cls-1{fill:#2674fc;}.cls-2{fill:#dd151f;}.cls-3{fill:#fefefe;}</style></defs><g id="Capa_2" data-name="Capa 2"><g id="Capa_1-2" data-name="Capa 1"><path class="cls-1" d="M23.57,9.18l3.06,5.2H23.74c-.24,0-.28-.24-.36-.39Q22.2,11.92,21,9.84a1.21,1.21,0,0,0-1.34-.45c-.21.1-.14.29-.14.44,0,1.33,0,2.66,0,4,0,.48-.14.61-.6.57a14.77,14.77,0,0,0-1.63,0c-.27,0-.39-.06-.39-.37,0-4.08,0-8.16,0-12.24,0-.21,0-.35.3-.34A50.47,50.47,0,0,1,23,1.56a3.85,3.85,0,0,1,3.25,5.2C25.86,7.89,25.16,8.53,23.57,9.18Z"></path><path class="cls-1" d="M33.89,9.85c-1.08,0-2.17,0-3.26,0-.45,0-.49.18-.38.54a2.26,2.26,0,0,0,1.8,1.73,2.16,2.16,0,0,0,2.42-.89.58.58,0,0,1,.6-.29h1.8c.62,0,.64,0,.37.62a4.49,4.49,0,0,1-3.17,2.62,5.17,5.17,0,0,1-5.22-1.38,5.92,5.92,0,0,1-.09-7.45,5.48,5.48,0,0,1,7.17-.53,5,5,0,0,1,1.75,4.73c0,.34-.24.32-.47.32Z"></path><path class="cls-2" d="M77.21,10.94a4.6,4.6,0,0,1-3.47,3.25,5,5,0,0,1-6.37-3.84,6,6,0,0,1,.43-3.93,5.09,5.09,0,0,1,5.75-2.58,4.72,4.72,0,0,1,3.89,4.52c.08,1.49.08,1.49-1.42,1.49H70.35c-.39,0-.48.06-.37.46a2.27,2.27,0,0,0,1.8,1.8,2.2,2.2,0,0,0,2.46-.92c.08-.13.15-.25.33-.25Z"></path><path class="cls-2" d="M57.09,7.91c0-2,0-4,0-6,0-.18-.13-.47.27-.46a51.9,51.9,0,0,1,5.72.12,3.82,3.82,0,0,1,3.35,4.78,3.85,3.85,0,0,1-3.27,3,16.74,16.74,0,0,1-2.92.09c-.42,0-.57.08-.56.54,0,1.31,0,2.62,0,3.93,0,.38-.06.54-.48.52a13.61,13.61,0,0,0-1.69,0c-.38,0-.45-.11-.45-.47Q57.1,10.92,57.09,7.91Z"></path><path class="cls-1" d="M10.66,4.52A4.5,4.5,0,0,0,7.49,2.87a4.34,4.34,0,0,0-4.6,4.26c0,2.23,0,4.45,0,6.68,0,.46-.13.57-.57.55-.63,0-1.27,0-1.91,0-.21,0-.35,0-.35-.3C.14,11.38-.07,8.7.19,6A6,6,0,0,1,1.25,3.29c.2-.31.25-.43-.2-.44-1,0-1,0-1-1C.09,1.26-.17.5.2.17S1.26.08,1.82.08H7.44a6.79,6.79,0,0,1,2.87.67.49.49,0,0,1,.36.49C10.65,2.28,10.66,3.32,10.66,4.52Z"></path><path class="cls-2" d="M13,11.5c.5.1,1.06-.16,1.31.13s.07.86.08,1.3.15,1-.07,1.31-.88.1-1.34.1c-1.92,0-3.83,0-5.74,0a7.36,7.36,0,0,1-3.09-.71.5.5,0,0,1-.35-.55c0-1,0-2.06,0-3.1.21,0,.27.19.38.29a4.24,4.24,0,0,0,4.67.94,4.24,4.24,0,0,0,2.72-4q0-3.31,0-6.63c0-.39.1-.53.5-.51.63,0,1.27,0,1.91,0,.3,0,.42.06.42.39,0,2.33,0,4.65,0,7A6.72,6.72,0,0,1,13.26,11C13.18,11.17,13.1,11.31,13,11.5Z"></path><path class="cls-2" d="M93,13.2a4.42,4.42,0,0,1-5.6.54,3.76,3.76,0,0,1-1.53-3c-.07-2.1,0-4.2,0-6.29,0-.28.1-.35.36-.34.61,0,1.23,0,1.85,0,.32,0,.41.1.41.41,0,1.63,0,3.26,0,4.89a4.63,4.63,0,0,0,.09,1.11,2.11,2.11,0,0,0,2.31,1.76,2,2,0,0,0,2.1-2c.15-1.83.05-3.67,0-5.5,0-.52.09-.74.66-.68a11.09,11.09,0,0,0,1.63,0c.31,0,.37.1.37.39q0,4.74,0,9.49c0,.32-.09.42-.41.4-.58,0-1.16,0-1.74,0-.38,0-.55-.08-.5-.48A5.3,5.3,0,0,0,93,13.2Z"></path><path class="cls-1" d="M41,14.35c-1.34,0-1.34,0-1.34-1.33,0-2,0-4.08,0-6.12,0-.44-.12-.63-.56-.56s-.71-.09-.63-.6a4.26,4.26,0,0,0,0-.62c0-.86,0-.88.87-1,.26,0,.3-.14.3-.35a6.78,6.78,0,0,1,0-.9A3.43,3.43,0,0,1,43.76.07c.2,0,.24.15.24.31s0,.56,0,.84a2.37,2.37,0,0,1,0,.89c-.13.28-.53.14-.81.22A1.4,1.4,0,0,0,42.33,4c.08.16.21.12.33.12.34,0,.68,0,1,0s.46.06.44.4,0,.94,0,1.4c0,.29-.1.42-.39.39h0c-.43,0-1-.18-1.25.09s-.1.89-.1,1.35c0,2,0,4,0,6,0,.48-.1.7-.61.63A4.45,4.45,0,0,0,41,14.35Z"></path><path class="cls-1" d="M48,5.58A3.74,3.74,0,0,1,50.61,4c.33,0,.49,0,.48.39,0,.64,0,1.27,0,1.91,0,.3-.06.45-.4.43-2.21-.11-2.8,1-2.73,2.88,0,1.44,0,2.88,0,4.33,0,.36-.09.49-.47.47-.6,0-1.2,0-1.8,0-.26,0-.41,0-.41-.36,0-3.18,0-6.37,0-9.55,0-.32.14-.37.41-.36.62,0,1.24,0,1.85,0,.32,0,.44.09.42.41S48,5.12,48,5.58Z"></path><path class="cls-2" d="M81.51,5.64A3.69,3.69,0,0,1,84.23,4c.31,0,.44.05.43.38,0,.66,0,1.31,0,2,0,.28-.08.4-.38.38-2.17-.12-2.81.91-2.78,2.91,0,1.42,0,2.84,0,4.26,0,.44-.13.54-.54.51-.58,0-1.16,0-1.74,0-.27,0-.34-.08-.34-.35q0-4.8,0-9.6c0-.29.13-.33.37-.32.62,0,1.24,0,1.86,0,.33,0,.41.12.39.42S81.51,5.16,81.51,5.64Z"></path><path class="cls-1" d="M55,9.28c0,1.51,0,3,0,4.54,0,.48-.14.61-.6.57a14.77,14.77,0,0,0-1.63,0c-.27,0-.39-.05-.39-.37q0-4.75,0-9.53c0-.31.1-.38.39-.37.6,0,1.2,0,1.79,0,.37,0,.44.13.43.46C55,6.14,55,7.71,55,9.28Z"></path><path class="cls-2" d="M94.1.05V1.87c0,.16,0,.29-.19.36L89.94,4c0-.58,0-1.08,0-1.58a.37.37,0,0,1,.24-.39Z"></path><path class="cls-1" d="M55.29,1.59a1.51,1.51,0,0,1-1.63,1.54,1.53,1.53,0,1,1,0-3A1.5,1.5,0,0,1,55.29,1.59Z"></path><path class="cls-3" d="M21,3.67a11.1,11.1,0,0,1,1.29,0,1.63,1.63,0,0,1,1.5,1.67,1.71,1.71,0,0,1-1.32,1.94,14.22,14.22,0,0,1-2.69.09c-.21,0-.22-.15-.22-.31,0-1,0-2.06,0-3.09,0-.28.13-.35.38-.34H21Z"></path><path class="cls-3" d="M32.59,8.07c-.69,0-1.38,0-2.07,0-.25,0-.34-.06-.29-.32a2.32,2.32,0,0,1,2.19-1.84A2.3,2.3,0,0,1,34.94,7.6c.08.36,0,.5-.38.48C33.91,8.05,33.25,8.07,32.59,8.07Z"></path><path class="cls-3" d="M69.92,8.07A2.35,2.35,0,0,1,71.6,6a2.47,2.47,0,0,1,2.58.65,3,3,0,0,1,.27.35c.17.29.38.65.25.94s-.53.11-.81.12Z"></path><path class="cls-3" d="M59.69,5.38V3.92c0-.17,0-.35.24-.34a14.7,14.7,0,0,1,2.57.09,1.6,1.6,0,0,1,1.33,1.69A1.62,1.62,0,0,1,62.6,7.19a12.64,12.64,0,0,1-2.68.11c-.26,0-.23-.19-.23-.35Z"></path></g></g></svg>