<svg xmlns="http://www.w3.org/2000/svg" viewBox="0 0 95.18 22.27"><defs><style>.cls-1{fill:#fefefe;}</style></defs><g id="Capa_2" data-name="Capa 2"><g id="Capa_1-2" data-name="Capa 1"><path d="M63.19,12.23v9.43c0,.12,0,.15-.15.14H59.25c-.11,0-.15,0-.15-.14q0-7.68,0-15.36c0-.11,0-.13.14-.13h3.83a.22.22,0,0,1,.2.09l2.42,3c.87,1.08,1.75,2.15,2.63,3.23l2.21,2.71a1.49,1.49,0,0,0,.12.14.26.26,0,0,0,0-.15q0-4.42,0-8.84c0-.12,0-.15.16-.15h3.93c.11,0,.14,0,.14.14q0,7.67,0,15.34c0,.12,0,.16-.15.16H70.79a.24.24,0,0,1-.2-.09l-3.35-4.29-4-5.09Z"></path><path d="M45.35,5.85a9.14,9.14,0,0,1,4.29,1A8.57,8.57,0,0,1,52,8.64a8,8,0,0,1,2,3.62,7.82,7.82,0,0,1,.2,1.53,7.65,7.65,0,0,1-.41,2.76A7.77,7.77,0,0,1,52,19.41a8.77,8.77,0,0,1-5.09,2.72,9.24,9.24,0,0,1-4.72-.4,8.51,8.51,0,0,1-4.89-4.29,7.48,7.48,0,0,1-.77-3,7.73,7.73,0,0,1,2-5.65,8.62,8.62,0,0,1,2.61-2,9.37,9.37,0,0,1,3.4-.94C44.83,5.85,45.09,5.85,45.35,5.85Z"></path><path d="M17.77,14V6.31c0-.12,0-.14.14-.14h3.81c.11,0,.13,0,.13.13v5.77c0,.12,0,.14.14.14h5.75c.12,0,.15,0,.14-.15V6.31c0-.11,0-.14.13-.14h3.83c.1,0,.13,0,.13.12Q32,14,32,21.67c0,.11,0,.13-.15.13H28c-.12,0-.14,0-.14-.16q0-3.06,0-6.13c0-.12,0-.15-.16-.15q-2.86,0-5.73,0c-.13,0-.15,0-.15.15v6.14c0,.11,0,.15-.14.15h-3.8c-.11,0-.14,0-.14-.14Z"></path><path d="M14.58,21.78c-.05,0-.09,0-.14,0h-5a.21.21,0,0,1-.2-.09L5.44,17,4.15,15.47l-.05-.06a.27.27,0,0,0,0,.15c0,2,0,4,0,6.08,0,.14,0,.17-.17.17H.16c-.12,0-.16,0-.16-.14V6.3c0-.11,0-.13.14-.13H4c.12,0,.14,0,.14.14,0,1.9,0,3.81,0,5.71v.17c.21-.28.41-.53.61-.78l4-5.16a.18.18,0,0,1,.16-.08H14.2l-1,1.12q-1.68,2-3.38,4L8,13.45c-.06.07,0,.11,0,.16l2.32,2.87,4.16,5.13A1.09,1.09,0,0,1,14.58,21.78Z"></path><path d="M80.52,14c0-2.56,0-5.11,0-7.67,0-.12,0-.15.15-.15h8.65c.13,0,.15,0,.15.15V9.45c0,.11,0,.14-.15.14H84.68c-.13,0-.14,0-.14.15v2.33c0,.11,0,.14.13.14h4.27c.11,0,.14,0,.14.13v3.22c0,.11,0,.14-.13.14H84.67c-.1,0-.13,0-.13.14v2.28c0,.11,0,.14.13.14h4.66c.11,0,.14,0,.14.14v3.29c0,.1,0,.13-.13.13H80.65c-.13,0-.13-.06-.13-.16Z"></path><path d="M50.86,2.25a2.21,2.21,0,0,1-1.7,2.18,2.11,2.11,0,0,1-2.36-1.2A2.31,2.31,0,0,1,47.24.61,2.1,2.1,0,0,1,50.49,1,2.33,2.33,0,0,1,50.86,2.25Z"></path><path d="M44.68,2.24a2.23,2.23,0,0,1-1.38,2.1,2.11,2.11,0,0,1-2.6-1A2.33,2.33,0,0,1,41.05.63a2.09,2.09,0,0,1,3,0A2.24,2.24,0,0,1,44.68,2.24Z"></path><path d="M93.44,18.31A1.75,1.75,0,1,1,91.68,20,1.73,1.73,0,0,1,93.44,18.31Z"></path><path class="cls-1" d="M40.88,13.9A4.13,4.13,0,0,1,42,11,4.36,4.36,0,0,1,45,9.61a4.42,4.42,0,0,1,4.62,3.06,4.08,4.08,0,0,1-.83,4,4.34,4.34,0,0,1-3,1.56,4.41,4.41,0,0,1-3.43-1.15,4.2,4.2,0,0,1-1.4-2.69v-.07C40.89,14.19,40.88,14.05,40.88,13.9Z"></path><path class="cls-1" d="M93.43,21.44A1.4,1.4,0,0,1,92,20.06a1.41,1.41,0,1,1,1.41,1.38Z"></path><path d="M93.68,20.09a2.84,2.84,0,0,1,.53.68.3.3,0,0,1-.39-.16,2.44,2.44,0,0,0-.23-.33.53.53,0,0,0-.53-.17s0,.06,0,.09,0,.33,0,.49,0,.09-.12.09-.1,0-.1-.09V19.35c0-.08,0-.09.1-.09h.71a.4.4,0,0,1,.11.8Z"></path><path class="cls-1" d="M93.32,19.44c.12,0,.22,0,.32,0a.24.24,0,0,1,.21.23.25.25,0,0,1-.21.23,3.47,3.47,0,0,1-.56,0s-.06,0,0-.05v-.12c0-.1,0-.23,0-.29S93.24,19.45,93.32,19.44Z"></path></g></g></svg>