<svg xmlns="http://www.w3.org/2000/svg" viewBox="0 0 80.68 34.81"><defs><style>.cls-1{fill:#137e89;}.cls-2{fill:#9cd6ab;}.cls-3{fill:#98c6cc;}.cls-4{fill:#1fa442;}.cls-5{fill:#137e8a;}.cls-6{fill:#fdfefe;}.cls-7{fill:#fefefe;}.cls-8{fill:#fdfefd;}</style></defs><g id="Capa_2" data-name="Capa 2"><g id="Capa_1-2" data-name="Capa 1"><path class="cls-1" d="M80.68,11.72c-.19.62-.22,1.29-.45,1.91A4.74,4.74,0,0,1,75.64,17a5.54,5.54,0,0,1-3.38-.72c-.69-.46-.73-.66-.24-1.35.61-.87.6-.83,1.59-.47,2,.74,3.7.12,4.14-2.16a7.72,7.72,0,0,0-.13-3.7,2.37,2.37,0,0,0-2.2-1.83,2.61,2.61,0,0,0-2.51,1.43,5.21,5.21,0,0,0-.54,2.29c-.13,2.6-1.14,4.72-3.58,5.87a7.69,7.69,0,0,1-5.54.36,4.44,4.44,0,0,1-3.11-3.83A9.27,9.27,0,0,1,60.42,8,5.2,5.2,0,0,1,66.19,4.5a7.8,7.8,0,0,1,2.51.64c.42.21.62.46.35.93a5.7,5.7,0,0,0-.38.88c-.16.46-.4.61-.89.4a5.11,5.11,0,0,0-2-.43A2.58,2.58,0,0,0,63,8.81a6.31,6.31,0,0,0,0,4,2.38,2.38,0,0,0,2.45,1.8,3.76,3.76,0,0,0,3.8-1.94,6.26,6.26,0,0,0,.52-2.42,8.59,8.59,0,0,1,.51-2.66,5.07,5.07,0,0,1,5.37-3.07c3,.27,4.58,1.9,4.94,4.88a1.86,1.86,0,0,0,.1.31Z"></path><path class="cls-1" d="M0,9.44C.21,8.8.29,8.13.55,7.5A4.94,4.94,0,0,1,5.34,4.32a7.29,7.29,0,0,1,2.13.23,4.12,4.12,0,0,1,3,3.6,4.64,4.64,0,0,1,0,1.29,2,2,0,0,1-2.28,1.93c-1.66,0-3.33,0-5,0-.44,0-.51.09-.47.54C3,14.38,4.92,14.9,7,14.51a7,7,0,0,0,1.34-.42c.44-.2.68-.09.84.33.08.21.19.41.29.62.37.8.36.89-.44,1.24a8,8,0,0,1-5.91.27C1.2,15.9.42,14.34.12,12.46c0-.11,0-.24-.12-.29Z"></path><path class="cls-2" d="M41.88,34.7a.2.2,0,0,1,0,.11H33.12a.29.29,0,0,1,0-.09c.2-.23.48-.2.74-.2,2.43,0,4.87,0,7.3,0A.94.94,0,0,1,41.88,34.7Z"></path><path class="cls-3" d="M30.72.1a.34.34,0,0,1,0-.1H33a.14.14,0,0,0,0,.11A3,3,0,0,1,30.72.1Z"></path><path class="cls-1" d="M11.84,11.15c0-1.61,0-3.22,0-4.83,0-.84.28-1.35,1.08-1.51,2.3-.46,4.61-.73,6.76.59.24.15.36.06.55-.05A6.82,6.82,0,0,1,26,4.82a4.23,4.23,0,0,1,2.92,3.89c.29,2.51.07,5,.13,7.55,0,.35-.19.46-.51.46-.53,0-1.06,0-1.59,0s-.64-.17-.64-.64c0-2,0-4.06,0-6.09a5.06,5.06,0,0,0-.16-1.23c-.43-1.71-1.69-2.07-3.36-1.91a2,2,0,0,0-.54.14c-.85.27-.85.3-.67,1.17a6.62,6.62,0,0,1,.17,1.4c0,2.18,0,4.36,0,6.54,0,.48-.15.65-.62.62s-.87,0-1.31,0c-.72,0-.74,0-.74-.72,0-1.73,0-3.45,0-5.18a9.13,9.13,0,0,0-.16-2,2.23,2.23,0,0,0-2.06-2,12.15,12.15,0,0,0-1.81,0c-.4,0-.56.18-.56.62,0,2.83,0,5.65,0,8.48,0,.76,0,.76-.75.76H12.38c-.41,0-.56-.14-.55-.57C11.85,14.49,11.84,12.82,11.84,11.15Z"></path><path class="cls-1" d="M30.72.1H33a5.5,5.5,0,0,1,.19,2,19.46,19.46,0,0,1,0,2.16c0,.42,0,.6.54.47a8.1,8.1,0,0,1,3.6-.13,4.82,4.82,0,0,1,3.72,4.28A9.86,9.86,0,0,1,41,12.81a4.78,4.78,0,0,1-4.54,4,23.18,23.18,0,0,1-5.2-.14c-.54-.06-.73-.43-.73-1q0-5.91,0-11.82V.62C30.5.42,30.45.19,30.72.1Z"></path><path class="cls-4" d="M41.88,34.7l-8.78,0c-.62-.16-.83-.45-.64-1.07.52-1.75,1.08-3.49,1.66-5.21a1.48,1.48,0,0,1,1.51-1c1.16,0,2.31,0,3.47,0a.59.59,0,0,1,.27,0c.36.22.4,0,.49-.28.34-1.13.74-2.25,1.07-3.38.1-.36.25-.49.62-.48,1.17,0,2.35,0,3.52,0,.25,0,.46,0,.34.36Q43.64,29.19,41.88,34.7Z"></path><path class="cls-1" d="M58.72,11.75c0,1.19,0,2.38,0,3.58a.85.85,0,0,1-.6.91,11.77,11.77,0,0,1-6.92.43,3.18,3.18,0,0,1-2.65-3.39,3.7,3.7,0,0,1,2.76-3.94,13.31,13.31,0,0,1,3.83-.28c.91,0,1-.15.8-1.05a1.49,1.49,0,0,0-1.53-1.18c-1.1,0-2.19-.07-3.29-.07-.43,0-.63-.14-.6-.6s0-.91,0-1.36c0-.3.1-.49.41-.48a21.91,21.91,0,0,1,4.92.33,3.43,3.43,0,0,1,2.85,3.57C58.73,9.4,58.72,10.57,58.72,11.75Z"></path><path class="cls-4" d="M17.81,27.62,15.72,34.2c0,.11-.08.21-.11.32-.07.29-.31.19-.46.16s-.09-.23-.05-.35Q16.77,29,18.44,23.72a.51.51,0,0,1,.58-.39c.85,0,1.71,0,2.56,0a.9.9,0,0,1,.94.52c1.22,2,2.46,4.08,3.7,6.11a.8.8,0,0,0,.35.42c.44-1.38.88-2.75,1.31-4.12.26-.83.52-1.65.79-2.48l.06-.21c.08-.29.32-.27.51-.21s.06.25,0,.37q-1.57,5-3.14,10c-.32,1-.32,1-1.34,1-.74,0-1.48,0-2.22,0a.67.67,0,0,1-.67-.39c-1.29-2.15-2.6-4.3-3.9-6.45Z"></path><path class="cls-4" d="M52.77,34.13c0,.47-.18.58-.58.58-2.73,0-5.46,0-8.19,0-.73,0-1-.37-.8-1.06q.77-2.51,1.58-5a1.56,1.56,0,0,1,1.65-1.19q3.65,0,7.29,0c.73,0,1.07.4.88,1.1-.23.87-.54,1.72-.8,2.59-.09.3-.31.27-.54.27-1.48,0-2.95,0-4.43,0a.57.57,0,0,0-.67.5c-.11.44-.28.87-.38,1.3-.15.63.1,1,.74,1h4.25Z"></path><path class="cls-5" d="M42.46,11.25c0-1.57,0-3.14,0-4.72,0-1.31.45-1.83,1.73-2a40.45,40.45,0,0,1,4.53-.25c.42,0,.6.14.59.56s0,.83,0,1.25-.16.64-.63.64c-1,0-2,.06-2.95.06-.44,0-.58.11-.58.57,0,2.86,0,5.72,0,8.59,0,.71,0,.74-.73.74H43c-.4,0-.57-.16-.56-.58C42.47,14.51,42.46,12.88,42.46,11.25Z"></path><path class="cls-4" d="M58.79,34.7h-4c-.7,0-1-.33-.8-1,.53-1.78,1.09-3.56,1.69-5.32a1.48,1.48,0,0,1,1.55-.93c2.68,0,5.35,0,8,0,.14,0,.43-.14.42.19s-.18.41-.49.4c-1.16,0-2.32,0-3.47,0s-1.63.29-2,1.43-.75,2.37-1.11,3.56c-.25.79,0,1.11.8,1.11h3.7c.14,0,.42-.16.42.19s-.16.38-.44.37C61.64,34.69,60.21,34.7,58.79,34.7Z"></path><path class="cls-4" d="M33.47,27.44c-.51,1.6-1,3.13-1.48,4.67-.24.73-.47,1.47-.69,2.2-.07.24-.14.4-.45.4-1.34,0-2.68,0-4.1,0l1.12-3.56c.35-1.09.7-2.18,1-3.27.07-.22.09-.44.41-.44Z"></path><path class="cls-4" d="M31.56,26.5c-.36,0-.72,0-1.08,0a.75.75,0,0,1-.8-1c0-.16.09-.32.14-.49.42-1.37.77-1.63,2.24-1.63h1.36c.95,0,1.22.38.94,1.3C33.9,26.1,33.8,26.62,31.56,26.5Z"></path><path class="cls-6" d="M5.4,9.4c-.7,0-1.4,0-2.1,0-.45,0-.49-.14-.39-.53A2.67,2.67,0,0,1,6.72,6.81,2.46,2.46,0,0,1,8,9.17c0,.26-.19.23-.36.23Z"></path><path class="cls-7" d="M33.16,10.88c0-1.1,0-2.2,0-3.3,0-.31.09-.47.42-.54A7.37,7.37,0,0,1,36,6.84,2.75,2.75,0,0,1,38.31,9.4a7,7,0,0,1-.1,3.09,2.76,2.76,0,0,1-2.76,2.18c-.6,0-1.21,0-1.81,0-.38,0-.49-.14-.49-.51C33.17,13.08,33.16,12,33.16,10.88Z"></path><path class="cls-7" d="M39.48,28.41c-.18.56-.37,1.12-.54,1.67l-1,3.34a1.59,1.59,0,0,1-.21.46.53.53,0,0,1-.64.23c-.29-.12-.19-.38-.13-.59q.78-2.45,1.55-4.89a.69.69,0,0,1,.63-.56C39.32,28.05,39.49,28.14,39.48,28.41Z"></path><path class="cls-7" d="M56,12.81c0,.23,0,.46,0,.68,0,1,0,1-.94,1.16a6.19,6.19,0,0,1-2.31,0c-.92-.21-1.39-.66-1.43-1.49a1.73,1.73,0,0,1,1.29-1.93,6,6,0,0,1,1.69-.12c.55,0,1.26-.18,1.59.09S56,12.27,56,12.81Z"></path><path class="cls-8" d="M49,30.82c-.44.08-.54-.06-.38-.48s.33-1.07.51-1.6a1,1,0,0,1,.25-.49A.56.56,0,0,1,50,28.1c.26.12.17.36.11.54-.18.61-.4,1.21-.57,1.82C49.5,30.77,49.34,30.9,49,30.82Z"></path></g></g></svg>