<svg xmlns="http://www.w3.org/2000/svg" viewBox="0 0 92.37 18.56"><defs><style>.cls-1{fill:#1d1d1b;}.cls-2{fill:#1f1f1d;}.cls-3{fill:#1e1e1c;}.cls-4{fill:#20201e;}.cls-5{fill:#034984;}.cls-6{fill:#044985;}.cls-7{fill:#054a85;}.cls-8{fill:#044a85;}.cls-9{fill:#252523;}.cls-10{fill:#0a4e87;}.cls-11{fill:#094d87;}.cls-12{fill:#0b4e88;}.cls-13{fill:#0a4d87;}.cls-14{fill:#0c4f87;}.cls-15{fill:#0e5089;}.cls-16{fill:#15548c;}.cls-17{fill:#12538b;}.cls-18{fill:#10518a;}.cls-19{fill:#1e5a90;}.cls-20{fill:#125389;}.cls-21{fill:#0f5089;}.cls-22{fill:#0d5089;}.cls-23{fill:#2d6597;}.cls-24{fill:#266193;}.cls-25{fill:#1c5b92;}.cls-26{fill:#13548d;}.cls-27{fill:#18588d;}.cls-28{fill:#105189;}.cls-29{fill:#1c598d;}.cls-30{fill:#125187;}.cls-31{fill:#fafafa;}.cls-32{fill:#fdfdfc;}</style></defs><g id="Capa_2" data-name="Capa 2"><g id="Capa_1-2" data-name="Capa 1"><path class="cls-1" d="M81.57,11.16c0,.9,0,1.79,0,2.69a.78.78,0,0,1-.68.9,8.61,8.61,0,0,1-4.56.11,2.52,2.52,0,0,1-2-2.37A2.57,2.57,0,0,1,76,9.75a12.56,12.56,0,0,1,2.71-.63c.38-.09,1.13.33,1.11-.56a1.4,1.4,0,0,0-1.16-1.47,4.84,4.84,0,0,0-2.74.28c-.44.16-.62.08-.78-.34s-.33-.86.44-1.06a7.85,7.85,0,0,1,4-.19,2.45,2.45,0,0,1,2,2.48C81.6,9.22,81.56,10.19,81.57,11.16Z"></path><path class="cls-2" d="M60.54,10.46c0-1.18,0-2.37,0-3.55,0-.43,0-.75.55-.89,1.73-.49,3.45-.79,5,.38a.53.53,0,0,0,.74,0,4.21,4.21,0,0,1,1.68-.7c2.37-.47,3.93.82,3.94,3.25,0,1.75,0,3.51,0,5.27,0,.44,0,.76-.6.75s-.48-.41-.48-.74c0-1.79,0-3.59,0-5.38A2,2,0,0,0,70.24,6.7a2.85,2.85,0,0,0-2.85.37c-.41.26-.37.66-.37,1,0,2,0,4,0,5.93,0,.39.17.91-.57.87S66,14.35,66,14c0-1.76,0-3.52,0-5.28a1.9,1.9,0,0,0-1.11-2,4,4,0,0,0-3.14.09c-.37.15-.2.58-.2.89,0,2.08,0,4.16,0,6.24,0,.34.34.94-.45.95s-.52-.62-.53-1C60.52,12.76,60.54,11.61,60.54,10.46Z"></path><path class="cls-3" d="M55.41,15.09c-2.52,0-4-1.31-4.28-3.85a6.32,6.32,0,0,1,.45-3.46,3.63,3.63,0,0,1,4.14-2.12A3.39,3.39,0,0,1,58.49,9c.07.75-.19,1-.9,1.1-1.59.19-3.18.47-4.78.66-.61.07-.75.26-.62.88a3.2,3.2,0,0,0,4.07,2.48,4.89,4.89,0,0,0,1.13-.33c.33-.14.52-.09.65.24s0,.52-.33.64A6.48,6.48,0,0,1,55.41,15.09Z"></path><path class="cls-3" d="M29.18,5.9c.84-.34,1.17,0,1.43.77.76,2.29,1.6,4.56,2.48,7,.89-2.5,1.75-4.78,2.51-7.1.25-.75.6-1,1.41-.69-.87,2.34-1.75,4.67-2.62,7-.6,1.61-1.22,3.21-1.77,4.83-.24.71-.59,1-1.35.72a2.88,2.88,0,0,1,.18-.59,6,6,0,0,0,0-6C30.53,10,29.92,7.9,29.18,5.9Z"></path><path class="cls-1" d="M87.82,10.52c0-1.14.05-2.3,0-3.44,0-.73.25-1,.91-1.15a10.73,10.73,0,0,1,3.09-.32c.25,0,.67-.12.55.37s.08,1.11-.59,1.17-1.47-.21-1.85.25-.13,1.38-.15,2.09c0,1.54-.07,3.09,0,4.62.06,1-.53.76-1.07.81s-1-.08-.91-.85C87.87,12.89,87.82,11.71,87.82,10.52Z"></path><path class="cls-2" d="M24.53,15.07a4.87,4.87,0,0,1-2.1-.35c-.23-.1-.6-.09-.44-.55s.34-.49.73-.35a4,4,0,0,0,2.31.35c.8-.17,1.51-.5,1.62-1.45a1.5,1.5,0,0,0-1-1.62c-.7-.33-1.44-.61-2.15-.95a2.24,2.24,0,0,1-1.4-2.42,2.28,2.28,0,0,1,1.94-2A4.71,4.71,0,0,1,27,6c.22.09.5.16.32.53s-.27.49-.64.32a3.37,3.37,0,0,0-1.76-.37c-.8.08-1.5.37-1.69,1.23a1.5,1.5,0,0,0,1.06,1.76c.56.26,1.14.45,1.69.7,1.44.65,2,1.54,1.74,2.84a2.6,2.6,0,0,1-2.54,2.06C25,15.09,24.75,15.07,24.53,15.07Z"></path><path class="cls-3" d="M40.92,15.08a5,5,0,0,1-2.08-.33c-.26-.1-.72-.08-.54-.6s.42-.47.82-.29a3.69,3.69,0,0,0,2,.34c.87-.11,1.65-.43,1.83-1.38S42.49,11.3,41.67,11c-.59-.25-1.2-.47-1.77-.75a2.28,2.28,0,0,1-1.45-2.6,2.26,2.26,0,0,1,2-1.92,4.45,4.45,0,0,1,2.74.3c.27.12.56.21.37.61s-.35.38-.68.23a3.17,3.17,0,0,0-2-.31,1.53,1.53,0,0,0-1.41,1.28,1.45,1.45,0,0,0,.95,1.62c.58.28,1.2.49,1.78.76,1.44.66,2,1.56,1.79,2.82a2.73,2.73,0,0,1-2.67,2.09A3,3,0,0,1,40.92,15.08Z"></path><path class="cls-3" d="M85.66,10.39c0,1.3,0,2.59,0,3.88,0,.81-.46.66-.89.63s-1.06.29-1-.61c0-2.62,0-5.25,0-7.87,0-.89.6-.6,1-.63s.94-.2.91.62C85.62,7.73,85.66,9.06,85.66,10.39Z"></path><path class="cls-4" d="M47.87,3.28l0,.84c0,.5-.13,1.1.1,1.48s.92.12,1.4.18c.26,0,.51,0,.51.37s-.16.44-.46.43-.44,0-.65,0c-.67-.1-.94.12-.91.86.06,1.65,0,3.3,0,5,0,1,.38,1.67,1.49,1.64.34,0,.54,0,.54.42s-.27.54-.61.58a2.17,2.17,0,0,1-2.45-2.26c0-1.76,0-3.52,0-5.28,0-.62,0-1.06-.83-.93-.31.06-.58,0-.58-.43s.28-.39.52-.35c1,.18.89-.48.88-1.09S46.64,3.16,47.87,3.28Z"></path><path class="cls-5" d="M13.22.92a1.58,1.58,0,0,1,1.55,1.59,1.56,1.56,0,0,1-1.64,1.58,1.6,1.6,0,0,1-1.51-1.62A1.63,1.63,0,0,1,13.22.92Z"></path><path class="cls-5" d="M9.84,0A1.54,1.54,0,0,1,11.4,1.56,1.55,1.55,0,0,1,9.83,3.13,1.52,1.52,0,0,1,8.28,1.56,1.52,1.52,0,0,1,9.84,0Z"></path><path class="cls-5" d="M6.38,3.53A1.51,1.51,0,0,1,4.83,2,1.56,1.56,0,0,1,8,2,1.52,1.52,0,0,1,6.38,3.53Z"></path><path class="cls-6" d="M3.59,2.55A1.39,1.39,0,0,1,5.08,3.9,1.36,1.36,0,0,1,3.76,5.42,1.38,1.38,0,0,1,2.21,4,1.43,1.43,0,0,1,3.59,2.55Z"></path><path class="cls-7" d="M1.87,8.07C1.06,8,.49,7.55.53,6.68A1.27,1.27,0,0,1,1.92,5.36,1.37,1.37,0,0,1,3.28,6.74,1.39,1.39,0,0,1,1.87,8.07Z"></path><path class="cls-7" d="M8.83,4.91a1.2,1.2,0,0,1,1.35-1.24A1.17,1.17,0,0,1,11.38,5,1.19,1.19,0,0,1,10.09,6.2C9.26,6.21,8.9,5.67,8.83,4.91Z"></path><path class="cls-6" d="M8.39,5.44A1.23,1.23,0,0,1,7.07,6.7c-.78,0-1.15-.5-1.18-1.24A1.1,1.1,0,0,1,7.05,4.21C7.87,4.16,8.28,4.65,8.39,5.44Z"></path><path class="cls-8" d="M1.37,11C.48,11,0,10.61,0,9.79A1.16,1.16,0,0,1,1.28,8.53,1.14,1.14,0,0,1,2.49,9.74,1.12,1.12,0,0,1,1.37,11Z"></path><path class="cls-8" d="M5.18,8.84c-1,0-1.35-.47-1.4-1.17A1.09,1.09,0,0,1,4.92,6.41a1.12,1.12,0,0,1,1.3,1.21A1.14,1.14,0,0,1,5.18,8.84Z"></path><path class="cls-5" d="M5.8,10.52a1.13,1.13,0,0,1-1.24,1.21,1.06,1.06,0,0,1-1.11-1.18A1,1,0,0,1,4.56,9.39,1.11,1.11,0,0,1,5.8,10.52Z"></path><path class="cls-8" d="M6.79,13.31a1.07,1.07,0,0,1-1.16,1.13c-.78,0-1.1-.49-1.1-1.16a1,1,0,0,1,1.08-1.09A1.08,1.08,0,0,1,6.79,13.31Z"></path><path class="cls-9" d="M84.67,2a1,1,0,0,1,1.15,1,1,1,0,0,1-1,1.1,1,1,0,0,1-1.21-1C83.55,2.47,84,2.09,84.67,2Z"></path><path class="cls-10" d="M8.07,8.84c-.11-.18-.23-.35-.32-.53A1,1,0,0,1,7.9,7a1,1,0,0,1,1.27-.18A1,1,0,0,1,9.7,7.92a1,1,0,0,1-1,.92c-.21,0-.42,0-.63,0Z"></path><path class="cls-11" d="M2.09,13.84A1,1,0,0,1,1,12.89a1,1,0,0,1,1-1.11,1,1,0,0,1,1.06,1.06A1,1,0,0,1,2.09,13.84Z"></path><path class="cls-10" d="M8.85,15.05a1,1,0,0,1-1,.89.94.94,0,0,1-1-1,.93.93,0,0,1,1-1C8.42,13.91,8.77,14.27,8.85,15.05Z"></path><path class="cls-11" d="M8,8.81a4.12,4.12,0,0,1,.23.58,1,1,0,0,1-.41,1.2.9.9,0,0,1-1.17-.1.94.94,0,0,1-.27-1.15,1,1,0,0,1,1.13-.57l.52.07Z"></path><path class="cls-11" d="M4.62,15.39a.77.77,0,0,1-.9.81.77.77,0,0,1-.86-.85.82.82,0,0,1,1-.9A.85.85,0,0,1,4.62,15.39Z"></path><path class="cls-12" d="M11.33,15.28a.81.81,0,0,1-.86.87.8.8,0,0,1-.85-.88.77.77,0,0,1,.86-.85A.78.78,0,0,1,11.33,15.28Z"></path><path class="cls-13" d="M7.79,12.72A.83.83,0,0,1,7,11.83.73.73,0,0,1,7.7,11a.81.81,0,0,1,.94.79A.88.88,0,0,1,7.79,12.72Z"></path><path class="cls-14" d="M7.17,17c0,.49-.28.83-.79.86a.77.77,0,0,1-.9-.83.78.78,0,0,1,.87-.86C6.87,16.2,7.09,16.57,7.17,17Z"></path><path class="cls-15" d="M9.41,16.93c.5.07.83.33.79.84a.73.73,0,0,1-.77.73.71.71,0,0,1-.76-.83C8.69,17.18,9,17,9.41,16.93Z"></path><path class="cls-16" d="M13.25,17.05c0,.57-.3.84-.75.82a.66.66,0,0,1-.67-.78.64.64,0,0,1,.68-.67A.68.68,0,0,1,13.25,17.05Z"></path><path class="cls-17" d="M12.77,15.13a.68.68,0,0,1-.76-.74.64.64,0,0,1,.66-.68c.45,0,.76.19.78.67A.67.67,0,0,1,12.77,15.13Z"></path><path class="cls-18" d="M10,12.9a.65.65,0,0,1-.73.68.67.67,0,0,1-.68-.78.65.65,0,0,1,.68-.66A.69.69,0,0,1,10,12.9Z"></path><path class="cls-19" d="M15.79,15.4c-.09.35-.27.59-.66.55a.55.55,0,0,1-.53-.65.54.54,0,0,1,.59-.49A.57.57,0,0,1,15.79,15.4Z"></path><path class="cls-20" d="M11,12.19c.38.05.57.25.56.57a.52.52,0,0,1-.62.56.53.53,0,0,1-.53-.56A.56.56,0,0,1,11,12.19Z"></path><path class="cls-21" d="M14.19,13.37a.6.6,0,0,1-.56-.7.48.48,0,0,1,.58-.47.51.51,0,0,1,.53.55A.61.61,0,0,1,14.19,13.37Z"></path><path class="cls-22" d="M12.79,11.6a.56.56,0,0,1-.66.53.5.5,0,0,1-.49-.58.53.53,0,0,1,.54-.54C12.56,11,12.74,11.25,12.79,11.6Z"></path><path class="cls-23" d="M12.84,5.48c.31,0,.5.2.49.47a.47.47,0,0,1-.48.47.46.46,0,0,1-.45-.48C12.39,5.64,12.58,5.51,12.84,5.48Z"></path><path class="cls-24" d="M15.18,10.88a.43.43,0,0,1-.41.5c-.29,0-.45-.14-.49-.42a.45.45,0,0,1,.9-.08Z"></path><path class="cls-25" d="M17.57,7.35a.44.44,0,0,1-.42.54.39.39,0,0,1-.46-.35A.43.43,0,0,1,17.05,7,.42.42,0,0,1,17.57,7.35Z"></path><path class="cls-26" d="M16.69,13.39c-.3,0-.46-.18-.43-.48a.4.4,0,0,1,.5-.4.39.39,0,0,1,.37.42A.42.42,0,0,1,16.69,13.39Z"></path><path class="cls-27" d="M14.1,6.86c.29,0,.47.19.4.49a.44.44,0,0,1-.53.38c-.24,0-.33-.22-.34-.46S13.82,6.85,14.1,6.86Z"></path><path class="cls-28" d="M16.49,4.92c0,.26-.15.46-.45.46s-.43-.18-.43-.47a.39.39,0,0,1,.39-.4A.4.4,0,0,1,16.49,4.92Z"></path><path class="cls-29" d="M17.84,10.17c0,.31-.2.46-.5.42a.41.41,0,0,1-.39-.42.42.42,0,0,1,.46-.46C17.74,9.7,17.82,9.92,17.84,10.17Z"></path><path class="cls-30" d="M14.71,9.28a.41.41,0,0,1-.42-.42.39.39,0,0,1,.46-.45.4.4,0,0,1,.41.41C15.17,9.13,15,9.26,14.71,9.28Z"></path><path class="cls-31" d="M79.81,12.07c-.24.43.45,1.24-.4,1.5a2.89,2.89,0,0,1-2.86-.38,1.41,1.41,0,0,1,.33-2.27,5.91,5.91,0,0,1,2.49-.55c.35,0,.44.13.44.43S79.81,11.59,79.81,12.07Z"></path><path class="cls-32" d="M57.42,8.83c.09.34-.07.49-.43.54-1.51.21-3,.43-4.54.67-.38.06-.42-.11-.39-.41.2-1.9,1.28-3.3,3.16-3.16A2.39,2.39,0,0,1,57.42,8.83Z"></path></g></g></svg>