<svg xmlns="http://www.w3.org/2000/svg" viewBox="0 0 92.34 30.78"><defs><style>.cls-1{fill:#fe3a12;}.cls-2{fill:#fe2b00;}.cls-3{fill:#feb4a4;}.cls-4{fill:#fea592;}.cls-5{fill:#fe8167;}.cls-6{fill:#fec9be;}.cls-7{fill:#fe917b;}.cls-8{fill:#fe927b;}.cls-9{fill:#fe907a;}.cls-10{fill:#feaf9f;}.cls-11{fill:#feae9e;}.cls-12{fill:#fead9c;}.cls-13{fill:#feae9d;}.cls-14{fill:#fe927c;}.cls-15{fill:#fe917a;}.cls-16{fill:#feb09f;}.cls-17{fill:#fe9883;}.cls-18{fill:#feaf9e;}.cls-19{fill:#fe937e;}.cls-20{fill:#feb1a1;}.cls-21{fill:#fe937d;}.cls-22{fill:#fe9d89;}.cls-23{fill:#fead9d;}.cls-24{fill:#fe927d;}.cls-25{fill:#fe947f;}.cls-26{fill:#feaa98;}.cls-27{fill:#fefefe;}.cls-28{fill:#fe2b01;}.cls-29{fill:#fef6f5;}</style></defs><g id="Capa_2" data-name="Capa 2"><g id="Capa_1-2" data-name="Capa 1"><path class="cls-1" d="M16.23,0A15.17,15.17,0,0,1,24,2.66a15.31,15.31,0,0,1,5.4,6.44c.09.2.09.2-.13.2l-4.42.08-4.2.08-4.31.07-1.45,0c-.06,0-.12,0-.18.07l.42,0,4.39.05,5.35.08,3.25,0,1.43,0a.19.19,0,0,1,.22.15c.12.39.25.78.38,1.17,0,.12,0,.15-.12.15l-3.71.05-4.66.08-4.57.08-2.84,0a.18.18,0,0,0-.17.06,1.7,1.7,0,0,0,.54.05l3.11,0,6.15.08,2.79,0,3.54.06c.08,0,.13,0,.16.11.09.42.16.84.22,1.26,0,.14,0,.18-.16.19l-3.33,0L22,13.6l-4.65.08-3.77.06s-.1,0-.16.1H14l3.52,0,5.4.06,3.73.05,3.87,0c.13,0,.17,0,.17.17,0,.38,0,.77.06,1.16,0,.14-.05.17-.18.17l-5.4.07L20,15.69l-5.16.08L13,15.8s-.14,0-.14,0,.1.05.15.06l2.21,0,6,.07,3.83.05,5.54.06c.26,0,.26,0,.24.27s-.08.7-.09,1.05c0,.19-.11.21-.25.21l-1.32,0-3.61,0-5.13.08-5.12.08-2.9.05c-.06,0-.12,0-.16,0s.08.05.12.05l3.58.05,4.53.05,3.17,0,5.73.06,1.1,0c.1,0,.13,0,.11.13-.09.42-.2.84-.3,1.26,0,.15-.15.12-.24.12l-1.38,0L23,19.83l-5.14.08L12.58,20a10.39,10.39,0,0,0-1.11,0c0,.09.1.06.15.06l3.54.05,4.52.05,3.2,0,5.74.06c.39,0,.77,0,1.16,0,.14,0,.18,0,.12.17a14.83,14.83,0,0,1-2.81,4.87,15.23,15.23,0,0,1-8.28,5,14.7,14.7,0,0,1-2.81.36,5.61,5.61,0,0,1-.71,0c-.06,0-.13,0-.18,0H15a.31.31,0,0,0-.19,0,12.6,12.6,0,0,1-4.08-.67,15.19,15.19,0,0,1-3.79-1.81,13.67,13.67,0,0,1-2.14-1.72c-.36-.36-.74-.71-1.06-1.1,0-.05-.1-.1-.08-.17s.09-.05.14-.05c.41,0,.82,0,1.24,0a1.88,1.88,0,0,0,.53,0c.3,0,.6,0,.9,0a2.09,2.09,0,0,0,.56,0c.3,0,.61,0,.91,0a2.1,2.1,0,0,0,.56,0c.31,0,.61,0,.91,0a2.12,2.12,0,0,0,.56,0,8.42,8.42,0,0,1,.87,0,1.19,1.19,0,0,0,.42,0c.35,0,.7,0,1.06,0a3.74,3.74,0,0,0,.75,0,5.77,5.77,0,0,1,.72,0,3.77,3.77,0,0,0,.75,0,5.63,5.63,0,0,1,.71,0,1.49,1.49,0,0,0,.42,0c.35,0,.7,0,1.05,0a1.29,1.29,0,0,0,.39,0h.83a.21.21,0,0,0,.23-.17c.05-.16.09-.32.15-.48s0-.14-.09-.13-.27,0-.4,0a1.37,1.37,0,0,0-.45,0,7.48,7.48,0,0,1-.82,0c-.14,0-.29,0-.43,0a1.7,1.7,0,0,0-.45,0c-.4,0-.8,0-1.2,0a.94.94,0,0,0-.47,0c-.41,0-.82,0-1.23,0a.94.94,0,0,0-.47,0c-.28,0-.55,0-.83,0h-.42a1.71,1.71,0,0,0-.45,0c-.41,0-.83,0-1.24,0a.94.94,0,0,0-.47,0c-.4,0-.8,0-1.2,0a.94.94,0,0,0-.47,0,7.45,7.45,0,0,1-.82,0c-.14,0-.28,0-.42,0a1.37,1.37,0,0,0-.45,0,7.66,7.66,0,0,1-.83,0H4.32a2.36,2.36,0,0,0-.46,0,.53.53,0,0,1-.62-.25,15.86,15.86,0,0,1-1-1.47c-.12-.21-.09-.25.15-.26a2,2,0,0,1,.42,0,1.56,1.56,0,0,0,.43,0c.43,0,.85,0,1.27,0a1.78,1.78,0,0,0,.46,0h.42c.28,0,.56,0,.83,0a1.68,1.68,0,0,0,.5,0c.41,0,.83,0,1.24,0a1.37,1.37,0,0,0,.45,0c.14,0,.29,0,.43,0a7.66,7.66,0,0,1,.83,0,1.41,1.41,0,0,0,.46,0c.41,0,.83,0,1.24,0a1.67,1.67,0,0,0,.5,0c.41,0,.82,0,1.24,0a1.37,1.37,0,0,0,.45,0c.14,0,.29,0,.43,0a7.69,7.69,0,0,1,.83,0,1.35,1.35,0,0,0,.49,0c.42,0,.83,0,1.24,0a1.75,1.75,0,0,0,.46,0h.42a3.39,3.39,0,0,1,.45,0,4,4,0,0,0,.77,0,.16.16,0,0,0,.15-.12c.06-.2.13-.4.19-.6,0,0,0-.09,0-.1a1.25,1.25,0,0,0-.43,0c-.47,0-.95,0-1.42,0a1.23,1.23,0,0,0-.54,0c-.32,0-.63,0-.94,0h-.51a2.27,2.27,0,0,0-.52,0c-.47,0-.93,0-1.4,0a1.23,1.23,0,0,0-.54,0c-.32,0-.63,0-.94,0a4.34,4.34,0,0,0-.51,0,2.27,2.27,0,0,0-.52,0c-.47,0-.93,0-1.4,0a1,1,0,0,0-.54,0c-.32,0-.63,0-.94,0s-.31,0-.47,0a2.27,2.27,0,0,0-.52,0c-.48,0-1,0-1.44,0a1,1,0,0,0-.54,0c-.32,0-.63,0-.94,0H3.43a2.07,2.07,0,0,0-.5,0,6.09,6.09,0,0,1-.74,0,.3.3,0,0,1-.26-.17,15.92,15.92,0,0,1-.78-1.61c-.07-.17,0-.21.15-.22a1.51,1.51,0,0,1,.3,0,2.5,2.5,0,0,0,.47,0h.46c.3,0,.6,0,.91,0a1.61,1.61,0,0,0,.49,0c.44,0,.88,0,1.32,0a1.35,1.35,0,0,0,.49,0c.16,0,.31,0,.47,0s.6,0,.9,0a1.62,1.62,0,0,0,.49,0c.15,0,.31,0,.46,0,.31,0,.61,0,.91,0a1.68,1.68,0,0,0,.5,0c.44,0,.88,0,1.32,0a1.6,1.6,0,0,0,.49,0h.46c.3,0,.61,0,.91,0a2,2,0,0,0,.49,0h.46c.3,0,.61,0,.91,0a1.35,1.35,0,0,0,.49,0c.44,0,.88,0,1.32,0a2,2,0,0,0,.49,0h.47c.3,0,.6,0,.9,0a1.55,1.55,0,0,0,.48,0h.58a.2.2,0,0,0,.22-.16c.05-.14.09-.28.14-.42s0-.2-.13-.19H18.16a2.54,2.54,0,0,0-.55,0c-.53,0-1.06,0-1.59,0a1.62,1.62,0,0,0-.62,0c-.36,0-.71,0-1.06,0a4.87,4.87,0,0,0-.54,0,3,3,0,0,0-.6,0c-.36,0-.71,0-1.07,0a4.87,4.87,0,0,0-.54,0,2.6,2.6,0,0,0-.56,0c-.37,0-.74,0-1.1,0H9.38a2.11,2.11,0,0,0-.56,0c-.42,0-.83,0-1.25,0-.13,0-.26,0-.4,0a2.13,2.13,0,0,0-.56,0c-.41,0-.83,0-1.25,0-.13,0-.26,0-.39,0a2.09,2.09,0,0,0-.56,0c-.53,0-1.06,0-1.59,0a1.57,1.57,0,0,0-.61,0c-.33,0-.67,0-1,0A.24.24,0,0,1,1,20.79c-.17-.49-.34-1-.48-1.5a.25.25,0,0,1,0-.22,1.36,1.36,0,0,1,.4,0c.49,0,1,0,1.48,0a1.52,1.52,0,0,0,.52,0h.51c.33,0,.65,0,1,0a1.58,1.58,0,0,0,.53,0c.17,0,.33,0,.5,0,.33,0,.66,0,1,0a2.27,2.27,0,0,0,.52,0c.17,0,.34,0,.5,0,.33,0,.66,0,1,0a2.33,2.33,0,0,0,.53,0h.5c.33,0,.65,0,1,0a2.33,2.33,0,0,0,.53,0h.5c.33,0,.66,0,1,0a1.57,1.57,0,0,0,.53,0c.49,0,1,0,1.48,0a1.87,1.87,0,0,0,.53,0c.5,0,1,0,1.48,0a1.82,1.82,0,0,0,.57,0c.48,0,1,0,1.44,0a1.68,1.68,0,0,0,.55,0h.81a.24.24,0,0,0,.27-.19c0-.14.09-.28.14-.42s0-.17-.12-.17h-.93a3,3,0,0,0-.6,0c-.43,0-.86,0-1.28,0a2.71,2.71,0,0,0-.4,0,2.42,2.42,0,0,0-.6,0c-.37,0-.73,0-1.1,0h-.58a2.39,2.39,0,0,0-.6,0c-.42,0-.84,0-1.25,0h-.4a2.42,2.42,0,0,0-.6,0c-.37,0-.73,0-1.1,0-.19,0-.39,0-.58,0a2.42,2.42,0,0,0-.6,0c-.37,0-.74,0-1.1,0-.18,0-.37,0-.55,0a2.41,2.41,0,0,0-.6,0c-.43,0-.86,0-1.29,0H5.59a3,3,0,0,0-.6,0c-.37,0-.74,0-1.1,0H3.34a3,3,0,0,0-.6,0c-.43,0-.86,0-1.29,0a2.64,2.64,0,0,0-.4,0,2.5,2.5,0,0,1-.61,0,.47.47,0,0,1-.12-.28c-.09-.45-.18-.9-.24-1.36a.34.34,0,0,1,0-.26,1.36,1.36,0,0,1,.4,0c.52,0,1,0,1.56,0a2.09,2.09,0,0,0,.56,0h.51c.34,0,.68,0,1,0a2.18,2.18,0,0,0,.57,0c.52,0,1,0,1.56,0a2.09,2.09,0,0,0,.56,0h.51c.34,0,.68,0,1,0a2.67,2.67,0,0,0,.56,0h.51c.34,0,.68,0,1,0a2.18,2.18,0,0,0,.57,0c.52,0,1,0,1.56,0a2.6,2.6,0,0,0,.56,0h.51c.34,0,.68,0,1,0a2.18,2.18,0,0,0,.57,0c.51,0,1,0,1.52,0a1.81,1.81,0,0,0,.57,0c.18,0,.36,0,.54,0,.34,0,.68,0,1,0a2.09,2.09,0,0,0,.56,0h1a.22.22,0,0,0,.26-.19,2.67,2.67,0,0,1,.13-.4c.05-.15,0-.19-.14-.19H19.6a2.75,2.75,0,0,0-.64,0c-.38,0-.76,0-1.14,0a5.56,5.56,0,0,0-.58,0,2.75,2.75,0,0,0-.64,0c-.44,0-.88,0-1.33,0-.13,0-.26,0-.39,0a2.72,2.72,0,0,0-.64,0c-.44,0-.89,0-1.33,0h-.43a2.42,2.42,0,0,0-.6,0c-.39,0-.79,0-1.18,0-.19,0-.39,0-.58,0a2.41,2.41,0,0,0-.6,0,11.66,11.66,0,0,1-1.18,0H7.76a3.39,3.39,0,0,0-.64,0c-.38,0-.76,0-1.14,0H5.4a3.39,3.39,0,0,0-.64,0c-.45,0-.89,0-1.33,0H3a2.75,2.75,0,0,0-.64,0c-.44,0-.88,0-1.33,0a3.09,3.09,0,0,0-.43,0,1.75,1.75,0,0,1-.51,0A.27.27,0,0,1,0,16.55c0-.29,0-.58,0-.86V15.1c0-.27,0-.29.29-.28a2.09,2.09,0,0,0,.61,0c.53,0,1.06,0,1.59,0a2.26,2.26,0,0,0,.58,0c.53,0,1.06,0,1.59,0a1.87,1.87,0,0,0,.58,0c.53,0,1.06,0,1.59,0a1.82,1.82,0,0,0,.57,0c.55,0,1.09,0,1.64,0a1.82,1.82,0,0,0,.57,0c.53,0,1.06,0,1.6,0a2.16,2.16,0,0,0,.57,0c.53,0,1.06,0,1.59,0a2.51,2.51,0,0,0,.61,0c.52,0,1,0,1.56,0a2.09,2.09,0,0,0,.61,0c.53,0,1.07,0,1.6,0a1.82,1.82,0,0,0,.57,0c.53,0,1.06,0,1.59,0a2.11,2.11,0,0,0,.56,0h.7a.24.24,0,0,0,.27-.19c0-.12.08-.24.11-.37s.05-.21-.15-.22H19.86a2.66,2.66,0,0,0-.63,0c-.61,0-1.22,0-1.83,0a2.29,2.29,0,0,0-.64,0c-.61,0-1.22,0-1.83,0a2.66,2.66,0,0,0-.69,0c-.6,0-1.19,0-1.79,0a2.66,2.66,0,0,0-.69,0c-.61,0-1.22,0-1.83,0a2.85,2.85,0,0,0-.65,0c-.61,0-1.22,0-1.82,0a2.81,2.81,0,0,0-.65,0c-.61,0-1.22,0-1.83,0a2.35,2.35,0,0,0-.65,0c-.61,0-1.22,0-1.83,0a2.36,2.36,0,0,0-.65,0c-.53,0-1.06,0-1.6,0-.17,0-.23-.06-.22-.24a11.78,11.78,0,0,1,.16-1.56.22.22,0,0,1,.25-.21,1.82,1.82,0,0,1,.33,0,2,2,0,0,0,.6,0c.54,0,1.07,0,1.6,0a2.09,2.09,0,0,0,.61,0c.53,0,1.06,0,1.6,0a2.07,2.07,0,0,0,.61,0c.53,0,1.06,0,1.59,0a2.49,2.49,0,0,0,.61,0c.54,0,1.07,0,1.6,0a2.49,2.49,0,0,0,.61,0c.53,0,1.06,0,1.6,0a2.48,2.48,0,0,0,.61,0c.53,0,1.06,0,1.59,0a2.09,2.09,0,0,0,.61,0c.54,0,1.07,0,1.6,0a2.09,2.09,0,0,0,.61,0c.53,0,1.06,0,1.6,0a2.18,2.18,0,0,0,.57,0c.54,0,1.09,0,1.63,0a2.09,2.09,0,0,0,.56,0h.67a.23.23,0,0,0,.25-.19l.12-.41c.05-.15,0-.18-.16-.18h-1.5a2.66,2.66,0,0,0-.63,0c-.61,0-1.22,0-1.83,0a2.37,2.37,0,0,0-.65,0c-.59,0-1.19,0-1.79,0a2.38,2.38,0,0,0-.65,0c-.61,0-1.22,0-1.83,0a2.74,2.74,0,0,0-.64,0c-.6,0-1.2,0-1.79,0a2.81,2.81,0,0,0-.65,0c-.61,0-1.22,0-1.83,0a2.35,2.35,0,0,0-.65,0c-.61,0-1.22,0-1.83,0a2.36,2.36,0,0,0-.65,0c-.6,0-1.19,0-1.79,0a2.36,2.36,0,0,0-.65,0c-.59,0-1.19,0-1.79,0-.18,0-.37,0-.55,0s-.08-.18-.07-.27a11.5,11.5,0,0,1,.36-1.43A15.19,15.19,0,0,1,3.37,5.75,15.36,15.36,0,0,1,8,1.84,15.14,15.14,0,0,1,13.49.08,8,8,0,0,1,14.59,0a.38.38,0,0,0,.21,0h.89C15.87.05,16.05,0,16.23,0Z"></path><path class="cls-2" d="M92.34,10.8c-.06.07,0,.16-.07.24a1.24,1.24,0,0,1-2.41-.23,1.26,1.26,0,0,1,.8-1.43,1.23,1.23,0,0,1,1.65.95.32.32,0,0,0,0,.09Z"></path><path class="cls-3" d="M15.11,30.78a4.39,4.39,0,0,1,.89,0v0Z"></path><path class="cls-4" d="M16.23,0a1.4,1.4,0,0,1-.54,0h.54Z"></path><path class="cls-2" d="M67.73,18.09c.48-1.56,1-3.07,1.42-4.58.41-1.34.83-2.68,1.24-4a.2.2,0,0,1,.23-.17H74c.16,0,.21.06.24.2.42,1.56.84,3.13,1.27,4.69l0,.14a1.6,1.6,0,0,0,.13-.43l1.16-4.43c0-.1,0-.17.18-.17h3.92c-.15.5-.31,1-.46,1.49l-2.79,9a.2.2,0,0,1-.23.17H73.78c-.14,0-.2,0-.22-.18l-.93-5a.53.53,0,0,1,0-.11l-.34,1.15c-.38,1.31-.76,2.62-1.13,3.93,0,.13-.08.17-.22.17H64.36c-.14,0-.17,0-.18-.17,0-.53-.07-1.06-.09-1.6,0-.11,0-.15-.16-.15H61.26a.2.2,0,0,0-.21.15c-.25.54-.51,1.08-.76,1.63a.19.19,0,0,1-.21.14H54.2c-.15,0-.18-.07-.22-.18L52.65,16l0-.11c-.07,0-.06.09-.08.14l-1.21,3.82a.21.21,0,0,1-.24.18H47.21c.08-.26.15-.51.23-.76q1.52-4.89,3-9.77c0-.1.06-.17.19-.17,1.77,0,3.54,0,5.3,0a3.74,3.74,0,0,1,2.39.83,2.34,2.34,0,0,1,.84,2A3.64,3.64,0,0,1,58,14.84a4.07,4.07,0,0,1-1.64.84c-.08,0-.14,0-.09.15.33.67.65,1.35,1,2,.07,0,.08-.08.11-.12l4.89-8.26a.29.29,0,0,1,.28-.16h4.12c.14,0,.18,0,.19.18.16,1.57.33,3.14.49,4.71L67.71,18S67.72,18,67.73,18.09Z"></path><path class="cls-2" d="M89.45,9.34c-.16.5-.32,1-.47,1.5s-.28.87-.41,1.31a.2.2,0,0,1-.23.16H84.92a.22.22,0,0,0-.25.18,4.69,4.69,0,0,1-.2.6c-.06.14,0,.16.12.16h3.72c-.14.43-.27.84-.41,1.25s-.3.92-.44,1.38a.21.21,0,0,1-.26.18H83.78c-.17,0-.23.05-.26.2a6.4,6.4,0,0,1-.2.62c0,.16,0,.22.15.22H87c.22,0,.22,0,.16.21-.27.86-.54,1.72-.8,2.59,0,.11-.08.14-.2.14H78.67c-.15,0-.17,0-.12-.17L81.76,9.47c0-.1.07-.15.18-.15h7.51Z"></path><path class="cls-2" d="M39.77,20c.21-.69.42-1.37.64-2.05.51-1.66,1-3.33,1.55-5,0-.13,0-.16-.12-.16h-3c.13-.43.26-.84.39-1.25.21-.7.43-1.39.64-2.09,0-.09,0-.15.18-.15h9.82l-.45,1.47c-.19.61-.39,1.23-.57,1.84,0,.13-.09.16-.21.16H46.27A.2.2,0,0,0,46,13l-2.16,6.89c0,.09,0,.16-.17.16H39.77Z"></path><path class="cls-5" d="M17.89,23.55a3.75,3.75,0,0,1,.82,0A5.57,5.57,0,0,1,17.89,23.55Z"></path><path class="cls-6" d="M13.77,25.52a3.12,3.12,0,0,1,.75,0A4.71,4.71,0,0,1,13.77,25.52Z"></path><path class="cls-6" d="M12.3,25.48a3.77,3.77,0,0,1,.75,0A3.77,3.77,0,0,1,12.3,25.48Z"></path><path class="cls-7" d="M14.91,14.45a2.43,2.43,0,0,1-.66,0A2.43,2.43,0,0,1,14.91,14.45Z"></path><path class="cls-8" d="M12.44,14.49a2.52,2.52,0,0,1-.67,0A2.5,2.5,0,0,1,12.44,14.49Z"></path><path class="cls-9" d="M8.26,12.47a2.22,2.22,0,0,1-.63,0A3.29,3.29,0,0,1,8.26,12.47Z"></path><path class="cls-7" d="M5.78,12.51a2.22,2.22,0,0,1-.63,0A3.32,3.32,0,0,1,5.78,12.51Z"></path><path class="cls-10" d="M3.34,12.56a2.74,2.74,0,0,1-.64,0A2.73,2.73,0,0,1,3.34,12.56Z"></path><path class="cls-7" d="M5.37,16.72H4.76a2.66,2.66,0,0,1,.63,0S5.39,16.72,5.37,16.72Z"></path><path class="cls-11" d="M14.87,16.57h-.63a3.32,3.32,0,0,1,.63,0s0,0,0,0A0,0,0,0,1,14.87,16.57Z"></path><path class="cls-12" d="M1.05,18.89H.59c-.06,0-.12,0-.15-.05a4.16,4.16,0,0,0,.61,0Z"></path><path class="cls-9" d="M19.58,16.49H19a3.32,3.32,0,0,1,.63,0S19.6,16.49,19.58,16.49Z"></path><path class="cls-11" d="M3,16.76H2.39a2.74,2.74,0,0,1,.64,0s0,0,0,0Z"></path><path class="cls-13" d="M20.56,12.28a2.22,2.22,0,0,1-.63,0A3.32,3.32,0,0,1,20.56,12.28Z"></path><path class="cls-14" d="M18.09,12.32a2.66,2.66,0,0,1-.63,0A2.66,2.66,0,0,1,18.09,12.32Z"></path><path class="cls-11" d="M15.65,12.36a2.29,2.29,0,0,1-.64,0A3.43,3.43,0,0,1,15.65,12.36Z"></path><path class="cls-9" d="M7.74,16.68H7.12a2.22,2.22,0,0,1,.63,0S7.75,16.68,7.74,16.68Z"></path><path class="cls-15" d="M19.87,14.37a2.66,2.66,0,0,1-.63,0A2.66,2.66,0,0,1,19.87,14.37Z"></path><path class="cls-15" d="M17.39,14.41a2.66,2.66,0,0,1-.63,0A2.66,2.66,0,0,1,17.39,14.41Z"></path><path class="cls-9" d="M13.17,12.4a2.66,2.66,0,0,1-.63,0A2.66,2.66,0,0,1,13.17,12.4Z"></path><path class="cls-11" d="M10.73,12.44a2.22,2.22,0,0,1-.63,0A3.32,3.32,0,0,1,10.73,12.44Z"></path><path class="cls-7" d="M9.92,14.53a2.66,2.66,0,0,1-.63,0A2.66,2.66,0,0,1,9.92,14.53Z"></path><path class="cls-9" d="M7.44,14.57a2.66,2.66,0,0,1-.63,0A2.22,2.22,0,0,1,7.44,14.57Z"></path><path class="cls-9" d="M5,14.61a2.65,2.65,0,0,1-.63,0A2.66,2.66,0,0,1,5,14.61Z"></path><path class="cls-15" d="M2.49,14.64a2.22,2.22,0,0,1-.63,0A3.32,3.32,0,0,1,2.49,14.64Z"></path><path class="cls-7" d="M17.22,16.53h-.61a3.32,3.32,0,0,1,.63,0S17.24,16.53,17.22,16.53Z"></path><path class="cls-11" d="M9.59,12.94a2,2,0,0,1,.6,0A3,3,0,0,1,9.59,12.94Z"></path><path class="cls-16" d="M.9,12.59a1,1,0,0,1-.58,0Z"></path><path class="cls-14" d="M.77,12.79a1.94,1.94,0,0,1,.59,0A2.35,2.35,0,0,1,.77,12.79Z"></path><path class="cls-15" d="M3,12.83a1.94,1.94,0,0,1,.59,0A2.91,2.91,0,0,1,3,12.83Z"></path><path class="cls-15" d="M5.19,12.87a2,2,0,0,1,.59,0A2.89,2.89,0,0,1,5.19,12.87Z"></path><path class="cls-15" d="M7.39,12.91a1.94,1.94,0,0,1,.59,0A2.94,2.94,0,0,1,7.39,12.91Z"></path><path class="cls-11" d="M11.8,13a1.94,1.94,0,0,1,.59,0A2.94,2.94,0,0,1,11.8,13Z"></path><path class="cls-11" d="M14,13a1.94,1.94,0,0,1,.59,0A2.89,2.89,0,0,1,14,13Z"></path><path class="cls-11" d="M16.21,13.06a2,2,0,0,1,.6,0A3,3,0,0,1,16.21,13.06Z"></path><path class="cls-11" d="M16,20.67h-.6A1.35,1.35,0,0,1,16,20.67Z"></path><path class="cls-15" d="M13.78,20.71H13.2a2.91,2.91,0,0,1,.59,0S13.79,20.71,13.78,20.71Z"></path><path class="cls-17" d="M.31,14.88a2,2,0,0,1,.59,0A2.32,2.32,0,0,1,.31,14.88Z"></path><path class="cls-11" d="M2.8,20.9H2.2A1.73,1.73,0,0,1,2.8,20.9Z"></path><path class="cls-11" d="M19.2,18.58h-.59a3,3,0,0,1,.6,0,0,0,0,0,1,0,0Z"></path><path class="cls-7" d="M16.91,18.62h-.57a2.89,2.89,0,0,1,.59,0S16.93,18.62,16.91,18.62Z"></path><path class="cls-7" d="M14.63,18.66h-.58a2.35,2.35,0,0,1,.59,0S14.65,18.66,14.63,18.66Z"></path><path class="cls-6" d="M14.63,18.66a0,0,0,0,0,0,0h.58A1.94,1.94,0,0,1,14.63,18.66Z"></path><path class="cls-13" d="M13.39,15.11a1.94,1.94,0,0,1,.59,0A2.89,2.89,0,0,1,13.39,15.11Z"></path><path class="cls-14" d="M15.56,15.15a2.32,2.32,0,0,1,.59,0A2,2,0,0,1,15.56,15.15Z"></path><path class="cls-7" d="M12.38,18.7h-.57a2.32,2.32,0,0,1,.59,0S12.4,18.69,12.38,18.7Z"></path><path class="cls-14" d="M10.1,18.74H9.52a2.35,2.35,0,0,1,.59,0S10.12,18.73,10.1,18.74Z"></path><path class="cls-6" d="M10.1,18.74a0,0,0,0,0,0,0h.58A1.94,1.94,0,0,1,10.1,18.74Z"></path><path class="cls-6" d="M19.58,16.49l0,0h.58A2,2,0,0,1,19.58,16.49Z"></path><path class="cls-6" d="M17.22,16.53l0,0h.57A1.94,1.94,0,0,1,17.22,16.53Z"></path><path class="cls-13" d="M7.86,18.78H7.27a3,3,0,0,1,.6,0s0,0,0,0Z"></path><path class="cls-15" d="M12.46,16.61h-.58a2.41,2.41,0,0,1,.6,0S12.48,16.6,12.46,16.61Z"></path><path class="cls-14" d="M5.57,18.81H5a2,2,0,0,1,.59,0S5.59,18.81,5.57,18.81Z"></path><path class="cls-18" d="M10.11,16.65H9.52a2.89,2.89,0,0,1,.59,0Z"></path><path class="cls-6" d="M10.11,16.65v0h.58A2.26,2.26,0,0,1,10.11,16.65Z"></path><path class="cls-6" d="M7.74,16.68s0,0,0,0h.58A1.48,1.48,0,0,1,7.74,16.68Z"></path><path class="cls-6" d="M5.37,16.72l0,0H6A2,2,0,0,1,5.37,16.72Z"></path><path class="cls-11" d="M3.33,18.85H2.74a3,3,0,0,1,.6,0s0,0,0,0Z"></path><path class="cls-7" d="M18.43,13.1a2,2,0,0,1,.55,0A2,2,0,0,1,18.43,13.1Z"></path><path class="cls-7" d="M20.63,13.14a2.1,2.1,0,0,1,.56,0A2.1,2.1,0,0,1,20.63,13.14Z"></path><path class="cls-7" d="M2.51,14.92a2.1,2.1,0,0,1,.56,0A2.1,2.1,0,0,1,2.51,14.92Z"></path><path class="cls-9" d="M4.68,15a2.1,2.1,0,0,1,.56,0A2.1,2.1,0,0,1,4.68,15Z"></path><path class="cls-19" d="M6.85,15a2.52,2.52,0,0,1,.55,0A1.69,1.69,0,0,1,6.85,15Z"></path><path class="cls-10" d="M9.05,15a2.1,2.1,0,0,1,.56,0A2.09,2.09,0,0,1,9.05,15Z"></path><path class="cls-7" d="M11.23,15.07a2.53,2.53,0,0,1,.55,0A1.68,1.68,0,0,1,11.23,15.07Z"></path><path class="cls-18" d="M17.76,15.19a1.76,1.76,0,0,1,.56,0A2.63,2.63,0,0,1,17.76,15.19Z"></path><path class="cls-7" d="M19.94,15.23a2,2,0,0,1,.55,0A2,2,0,0,1,19.94,15.23Z"></path><path class="cls-6" d="M3.33,18.85s0,0,0,0h.54A1.7,1.7,0,0,1,3.33,18.85Z"></path><path class="cls-7" d="M16.8,17.28h.54s0,0,0,0A2,2,0,0,1,16.8,17.28Z"></path><path class="cls-7" d="M8.4,17.13h.54s0,0,0,0A2.53,2.53,0,0,1,8.4,17.13Z"></path><path class="cls-6" d="M17.35,17.3a0,0,0,0,0,0,0,1.7,1.7,0,0,1,.55,0Z"></path><path class="cls-14" d="M10.49,17.16a2,2,0,0,1,.55,0A2,2,0,0,1,10.49,17.16Z"></path><path class="cls-11" d="M12.61,17.2h.55s0,0,0,0h0A2.65,2.65,0,0,1,12.61,17.2Z"></path><path class="cls-13" d="M18.92,17.32h.55s0,0,0,0a0,0,0,0,1,0,0A2.65,2.65,0,0,1,18.92,17.32Z"></path><path class="cls-11" d="M2.08,17h.55l0,0a0,0,0,0,1,0,0A2.65,2.65,0,0,1,2.08,17Z"></path><path class="cls-7" d="M14.71,17.24a1.7,1.7,0,0,1,.55,0A2,2,0,0,1,14.71,17.24Z"></path><path class="cls-15" d="M4.18,17.05a1.7,1.7,0,0,1,.55,0A2.53,2.53,0,0,1,4.18,17.05Z"></path><path class="cls-11" d="M6.3,17.08h.55s0,0,0,0a0,0,0,0,1,0,0A2.63,2.63,0,0,1,6.3,17.08Z"></path><path class="cls-14" d="M16.49,19.37a1.68,1.68,0,0,1,.55,0A2,2,0,0,1,16.49,19.37Z"></path><path class="cls-14" d="M18.5,19.41a1.68,1.68,0,0,1,.55,0A3.44,3.44,0,0,1,18.5,19.41Z"></path><path class="cls-7" d="M18.15,20.63h-.54a2.1,2.1,0,0,1,.56,0S18.17,20.63,18.15,20.63Z"></path><path class="cls-6" d="M19.2,18.58a0,0,0,0,0,0,0h.54A1.7,1.7,0,0,1,19.2,18.58Z"></path><path class="cls-6" d="M13.78,20.71s0,0,0,0h.54A1.7,1.7,0,0,1,13.78,20.71Z"></path><path class="cls-10" d="M11.58,20.75H11a2.54,2.54,0,0,1,.55,0Z"></path><path class="cls-6" d="M11.58,20.75v0h.54A1.64,1.64,0,0,1,11.58,20.75Z"></path><path class="cls-18" d="M9.37,20.79H8.82a3.46,3.46,0,0,1,.56,0Z"></path><path class="cls-6" d="M9.37,20.79v0h.54A1.7,1.7,0,0,1,9.37,20.79Z"></path><path class="cls-7" d="M7.16,20.83H6.62a2,2,0,0,1,.55,0S7.17,20.82,7.16,20.83Z"></path><path class="cls-15" d="M5,20.87H4.41a2.1,2.1,0,0,1,.56,0S5,20.86,5,20.87Z"></path><path class="cls-6" d="M7.86,18.78s0,0,0,0h.54A1.46,1.46,0,0,1,7.86,18.78Z"></path><path class="cls-6" d="M5,25.29a1.75,1.75,0,0,1,.56,0A3.51,3.51,0,0,1,5,25.29Z"></path><path class="cls-6" d="M6.45,25.33a2.09,2.09,0,0,1,.56,0A2.65,2.65,0,0,1,6.45,25.33Z"></path><path class="cls-6" d="M7.92,25.36a2.6,2.6,0,0,1,.56,0A2.13,2.13,0,0,1,7.92,25.36Z"></path><path class="cls-6" d="M9.39,25.4a2.6,2.6,0,0,1,.56,0A2.13,2.13,0,0,1,9.39,25.4Z"></path><path class="cls-6" d="M6.93,19.17a1.46,1.46,0,0,1,.51,0H6.92Z"></path><path class="cls-9" d="M8.44,19.22h.5s0,0,0,0A1.75,1.75,0,0,1,8.44,19.22Z"></path><path class="cls-6" d="M9,19.24a0,0,0,0,0,0,0,1.46,1.46,0,0,1,.51,0Z"></path><path class="cls-9" d="M10.45,19.26H11s0,0,0,0A2.24,2.24,0,0,1,10.45,19.26Z"></path><path class="cls-6" d="M11,19.28l0,0a1.52,1.52,0,0,1,.52,0Z"></path><path class="cls-14" d="M12.46,19.29a1.51,1.51,0,0,1,.52,0A1.82,1.82,0,0,1,12.46,19.29Z"></path><path class="cls-14" d="M14.48,19.33a1.46,1.46,0,0,1,.51,0A1.75,1.75,0,0,1,14.48,19.33Z"></path><path class="cls-7" d="M17.09,22.72h-.52A1,1,0,0,1,17.09,22.72Z"></path><path class="cls-11" d="M3.41,23H2.9a2.24,2.24,0,0,1,.52,0s0,0,0,0Z"></path><path class="cls-7" d="M5.36,23H4.84A1,1,0,0,1,5.36,23Z"></path><path class="cls-6" d="M11.7,22.81a1.51,1.51,0,0,1-.52,0v0h.52Z"></path><path class="cls-20" d="M.62,16.8c-.16,0-.34.05-.5,0l.51,0Z"></path><path class="cls-7" d="M11.2,22.81s0,0,0,0h-.5A1.52,1.52,0,0,1,11.2,22.81Z"></path><path class="cls-11" d="M7.32,22.92H6.81a2.24,2.24,0,0,1,.52,0s0,0,0,0A0,0,0,0,1,7.32,22.92Z"></path><path class="cls-10" d="M2.39,19.1H2.9v0A2.27,2.27,0,0,1,2.39,19.1Z"></path><path class="cls-6" d="M2.64,17a0,0,0,0,0,0,0,1.45,1.45,0,0,1,.51,0Z"></path><path class="cls-6" d="M6.86,17.11a0,0,0,0,0,0,0,1.45,1.45,0,0,1,.51,0Z"></path><path class="cls-6" d="M9,17.15v0a1.46,1.46,0,0,1,.51,0Z"></path><path class="cls-6" d="M13.17,17.22v0c.17,0,.35-.05.51,0Z"></path><path class="cls-7" d="M13.18,22.8h-.52A1.14,1.14,0,0,1,13.18,22.8Z"></path><path class="cls-6" d="M19.48,17.34a0,0,0,0,0,0,0,1.45,1.45,0,0,1,.51,0Z"></path><path class="cls-7" d="M15.09,22.76h-.5a1.52,1.52,0,0,1,.52,0S15.11,22.76,15.09,22.76Z"></path><path class="cls-7" d="M9.27,22.88H8.75A.92.92,0,0,1,9.27,22.88Z"></path><path class="cls-6" d="M2.91,19.12a0,0,0,0,0,0,0,1.45,1.45,0,0,1,.51,0Z"></path><path class="cls-7" d="M4.41,19.14h.5s0,0,0,0A1.82,1.82,0,0,1,4.41,19.14Z"></path><path class="cls-6" d="M4.93,19.16l0,0a1.52,1.52,0,0,1,.52,0Z"></path><path class="cls-7" d="M6.93,19.17v0a1.75,1.75,0,0,1-.51,0Z"></path><path class="cls-6" d="M15.09,22.76a0,0,0,0,0,0,0h.5A1.3,1.3,0,0,1,15.09,22.76Z"></path><path class="cls-18" d="M7.12,21.23h.47v0A1.91,1.91,0,0,1,7.12,21.23Z"></path><path class="cls-6" d="M7.6,21.25s0,0,0,0a1.23,1.23,0,0,1,.47,0Z"></path><path class="cls-13" d="M9,21.27a1.11,1.11,0,0,1,.48,0A1.93,1.93,0,0,1,9,21.27Z"></path><path class="cls-14" d="M10.8,21.31h.46s0,0,0,0A1.55,1.55,0,0,1,10.8,21.31Z"></path><path class="cls-6" d="M11.28,21.33l0,0a1.3,1.3,0,0,1,.48,0Z"></path><path class="cls-18" d="M12.65,21.34h.48v0A1.55,1.55,0,0,1,12.65,21.34Z"></path><path class="cls-6" d="M13.13,21.36v0a1.19,1.19,0,0,1,.46,0Z"></path><path class="cls-11" d="M14.51,21.38a1.3,1.3,0,0,1,.48,0A2.58,2.58,0,0,1,14.51,21.38Z"></path><path class="cls-21" d="M16.34,21.42h.46s0,0,0,0A1.47,1.47,0,0,1,16.34,21.42Z"></path><path class="cls-6" d="M16.81,21.44s0,0,0,0c.16,0,.32-.05.47,0Z"></path><path class="cls-8" d="M18.19,21.46a1.55,1.55,0,0,1,.48,0A1.55,1.55,0,0,1,18.19,21.46Z"></path><path class="cls-22" d="M19,22.66a1.55,1.55,0,0,1-.48,0A1.55,1.55,0,0,1,19,22.66Z"></path><path class="cls-6" d="M7.32,22.92a0,0,0,0,1,0,0h.46A1.26,1.26,0,0,1,7.32,22.92Z"></path><path class="cls-6" d="M3.41,23a0,0,0,0,1,0,0h.46A1.26,1.26,0,0,1,3.41,23Z"></path><path class="cls-23" d="M6.23,23.28a1.23,1.23,0,0,1,.47,0A2.48,2.48,0,0,1,6.23,23.28Z"></path><path class="cls-24" d="M11.38,23.4a1.23,1.23,0,0,1,.47,0A1.87,1.87,0,0,1,11.38,23.4Z"></path><path class="cls-21" d="M14.83,23.48a1.25,1.25,0,0,1,.47,0A1.83,1.83,0,0,1,14.83,23.48Z"></path><path class="cls-25" d="M4.29,25.08H3.83a1.55,1.55,0,0,1,.48,0S4.31,25.08,4.29,25.08Z"></path><path class="cls-21" d="M1.59,21.11h.46s0,0,0,0A1.47,1.47,0,0,1,1.59,21.11Z"></path><path class="cls-6" d="M2.06,21.13s0,0,0,0c.16,0,.32-.05.47,0Z"></path><path class="cls-13" d="M3.44,21.15a1.12,1.12,0,0,1,.48,0A2.58,2.58,0,0,1,3.44,21.15Z"></path><path class="cls-14" d="M5.26,21.19h.47s0,0,0,0A1.55,1.55,0,0,1,5.26,21.19Z"></path><path class="cls-6" d="M5.74,21.21a0,0,0,0,0,0,0,1.07,1.07,0,0,1,.47,0Z"></path><path class="cls-13" d="M14.45,24.85H14A.82.82,0,0,1,14.45,24.85Z"></path><path class="cls-14" d="M2.79,23.2a1.25,1.25,0,0,1,.43,0A1.25,1.25,0,0,1,2.79,23.2Z"></path><path class="cls-18" d="M4.52,23.24H5v0A1.32,1.32,0,0,1,4.52,23.24Z"></path><path class="cls-6" d="M5,23.26v0c.14,0,.29,0,.43,0Z"></path><path class="cls-16" d="M7.68,25H7.23A.77.77,0,0,1,7.68,25Z"></path><path class="cls-10" d="M8,23.32H8.4v0A1.61,1.61,0,0,1,8,23.32Z"></path><path class="cls-6" d="M8.41,23.34a0,0,0,0,0,0,0c.15,0,.29,0,.43,0Z"></path><path class="cls-15" d="M6,25.05H5.53A1.32,1.32,0,0,1,6,25S6,25.05,6,25.05Z"></path><path class="cls-6" d="M6,25.05s0,0,0,0h.42A1,1,0,0,1,6,25.05Z"></path><path class="cls-7" d="M13.12,23.44h.43s0,0,0,0A1.3,1.3,0,0,1,13.12,23.44Z"></path><path class="cls-6" d="M13.56,23.46s0,0,0,0a1,1,0,0,1,.43,0Z"></path><path class="cls-6" d="M.62,16.8v0h.42A1,1,0,0,1,.62,16.8Z"></path><path class="cls-8" d="M16.57,23.52H17s0,0,0,0A1.61,1.61,0,0,1,16.57,23.52Z"></path><path class="cls-6" d="M17,23.54l0,0a.93.93,0,0,1,.44,0Z"></path><path class="cls-6" d="M0,15.68a.61.61,0,0,1,0-.42Z"></path><path class="cls-7" d="M17.8,24.78h-.42a1.29,1.29,0,0,1,.44,0S17.82,24.77,17.8,24.78Z"></path><path class="cls-6" d="M17.8,24.78s0,0,0,0h.42C18.1,24.82,18,24.77,17.8,24.78Z"></path><path class="cls-6" d="M12.46,16.61l0,0h.42A1.09,1.09,0,0,1,12.46,16.61Z"></path><path class="cls-21" d="M16.1,24.81h-.42a1.29,1.29,0,0,1,.44,0S16.12,24.81,16.1,24.81Z"></path><path class="cls-6" d="M16.1,24.81l0,0h.42A.93.93,0,0,1,16.1,24.81Z"></path><path class="cls-6" d="M11.47,24.9a.94.94,0,0,1-.44,0v0h.44Z"></path><path class="cls-14" d="M12.75,24.89h-.44A.73.73,0,0,1,12.75,24.89Z"></path><path class="cls-21" d="M11,24.91a0,0,0,0,1,0,0h-.42A1.24,1.24,0,0,1,11,24.91Z"></path><path class="cls-7" d="M9.68,23.36a1,1,0,0,1,.43,0A1.55,1.55,0,0,1,9.68,23.36Z"></path><path class="cls-14" d="M9.34,25H8.9A.82.82,0,0,1,9.34,25Z"></path><path class="cls-6" d="M7.16,20.83v0h.38A1,1,0,0,1,7.16,20.83Z"></path><path class="cls-6" d="M14.87,16.57v0h.39A1,1,0,0,1,14.87,16.57Z"></path><path class="cls-6" d="M5.57,18.81s0,0,0,0H6A.9.9,0,0,1,5.57,18.81Z"></path><path class="cls-6" d="M1.05,18.89v0h.39C1.31,18.93,1.18,18.88,1.05,18.89Z"></path><path class="cls-6" d="M12.38,18.7l0,0h.38C12.65,18.74,12.52,18.69,12.38,18.7Z"></path><path class="cls-26" d="M.13,17a.39.39,0,0,1,.38,0A1.62,1.62,0,0,0,.13,17Z"></path><path class="cls-6" d="M18.15,20.63s0,0,0,0h.38A.9.9,0,0,1,18.15,20.63Z"></path><path class="cls-3" d="M.51,19.1a.45.45,0,0,1,.39,0Z"></path><path class="cls-6" d="M3,16.76a0,0,0,0,1,0,0h.38A.86.86,0,0,1,3,16.76Z"></path><path class="cls-10" d="M10.83,25.45a.9.9,0,0,1,.4,0A1.35,1.35,0,0,1,10.83,25.45Z"></path><path class="cls-6" d="M16.91,18.62l0,0h.38A.77.77,0,0,1,16.91,18.62Z"></path><path class="cls-6" d="M4.29,25.08l0,0h.38A.78.78,0,0,1,4.29,25.08Z"></path><path class="cls-11" d="M15.25,25.56c.13,0,.27,0,.4,0A1.33,1.33,0,0,1,15.25,25.56Z"></path><path class="cls-11" d="M16.72,25.6c.13,0,.27,0,.4,0A1.8,1.8,0,0,1,16.72,25.6Z"></path><path class="cls-6" d="M5,20.87l0,0h.38A1.08,1.08,0,0,1,5,20.87Z"></path><path class="cls-27" d="M92,10.6a.89.89,0,0,1-.92,1,.78.78,0,0,1-.69-.46,1.1,1.1,0,0,1,.14-1.24.79.79,0,0,1,.89-.21.91.91,0,0,1,.58.81A.48.48,0,0,1,92,10.6Z"></path><path class="cls-27" d="M62.26,15.71l1.56-3.32h0c0,.59,0,1.17.07,1.76L64,15.53c0,.13,0,.19-.16.19Z"></path><path class="cls-27" d="M53.88,13.64h-.5c-.1,0-.12,0-.09-.13.13-.39.25-.78.37-1.17a.13.13,0,0,1,.15-.11c.36,0,.71,0,1.07,0a.58.58,0,0,1,.59.29.67.67,0,0,1-.15.67,1.19,1.19,0,0,1-.92.43h-.52Z"></path><path class="cls-28" d="M91.34,10.7l.31.57c-.28.08-.32.07-.44-.17l-.15-.31s-.06-.08-.12-.07,0,.07,0,.12,0,.21,0,.32,0,.15-.15.15-.15,0-.15-.14c0-.38,0-.76,0-1.14,0-.08,0-.13.11-.13h.54q.36,0,.39.33C91.67,10.5,91.6,10.61,91.34,10.7Z"></path><path class="cls-29" d="M91.05,10.46c-.12,0-.17,0-.17-.17s.07-.15.17-.15.27,0,.27.17S91.18,10.46,91.05,10.46Z"></path></g></g></svg>