<svg xmlns="http://www.w3.org/2000/svg" viewBox="0 0 93.93 19.46"><defs><style>.cls-1{fill:#44c7f4;}.cls-2{fill:#001423;}.cls-3{fill:#009fe3;}.cls-4{fill:#fefefe;}</style></defs><g id="Capa_2" data-name="Capa 2"><g id="Capa_1-2" data-name="Capa 1"><path class="cls-1" d="M21.13,0a5.83,5.83,0,0,1-.87.85l-.78.71c-.56.48-1.08,1-1.62,1.51L15.31,5.42,13.48,7.11,11.62,8.82,9.79,10.51,7.92,12.23c-.63.56-1.24,1.13-1.86,1.7l-2.5,2.32L1.75,17.91.05,19.46c-.07,0,0-.08,0-.12V9.86s0-.06,0-.09a1.53,1.53,0,0,1,.38-.42C1,8.8,1.6,8.23,2.21,7.67,3.12,6.84,4,6,4.93,5.18c.49-.44,1-.9,1.46-1.35L8.66,1.74C9.17,1.26,9.7.8,10.2.31A1.39,1.39,0,0,1,10.61,0Z"></path><path class="cls-2" d="M10.61,0,7.07,3.27.1,9.7,0,9.77c0-.1,0-.19,0-.29V0Z"></path><path class="cls-3" d="M88.72,10.31c.23-.89.45-1.76.67-2.64.28-1.09.57-2.19.84-3.29,0-.14.09-.17.22-.17h3.32c.16,0,.18,0,.14.19C93,7.86,92.18,11.33,91.3,14.8c0,.19,0,.44-.17.54a1.28,1.28,0,0,1-.56,0H85.79a.25.25,0,0,1-.29-.21c-.61-1.95-1.23-3.89-1.85-5.84,0-.07,0-.16-.12-.22-.12.45-.24.89-.35,1.33-.4,1.58-.79,3.17-1.19,4.75,0,.1,0,.19-.19.19H78.56l-.06,0,.63-2.54q1-4.14,2.06-8.29c.06-.22.13-.31.38-.31,1.59,0,3.17,0,4.76,0a.23.23,0,0,1,.26.18q1,2.82,2,5.64A.53.53,0,0,0,88.72,10.31Z"></path><path class="cls-3" d="M18.44,15.37c.23-.93.46-1.83.69-2.73.68-2.73,1.37-5.46,2-8.2,0-.19.12-.24.32-.24,2.33,0,4.67,0,7,0a5.36,5.36,0,0,1,3.28,1.23A4.42,4.42,0,0,1,33.4,9,6.12,6.12,0,0,1,32.12,13a6.35,6.35,0,0,1-3.22,2.12,5.94,5.94,0,0,1-2,.3h-8.5Z"></path><path class="cls-3" d="M61.5,12c-.12.49-.24.94-.35,1.39l-.42,1.78c0,.11-.06.18-.2.18H56.22l-.06,0c.15-.7.31-1.41.47-2.12q.9-3.95,1.78-7.9c.08-.32.16-.64.23-1,0-.12.06-.15.18-.15h4.4c.17,0,.17,0,.13.19-.26,1-.51,2-.76,3.05a.88.88,0,0,0,0,.15L63,7.23l3.4-2.93a.36.36,0,0,1,.23-.09h5.11l-.56.51L65.7,9.57c-.13.12-.11.19,0,.32l3.76,5.33.09.15H64.26a.44.44,0,0,1-.41-.2c-.73-1-1.47-2-2.21-3C61.61,12.14,61.56,12.1,61.5,12Z"></path><path class="cls-3" d="M32.91,15.37l1.74-3.12Q36.84,8.34,39,4.42a.35.35,0,0,1,.36-.22h5.23c.16,0,.23,0,.27.21.31,1.86.65,3.7,1,5.55.27,1.56.56,3.12.84,4.67l.09.56c0,.11,0,.17-.13.17H42c-.12,0-.16,0-.18-.16-.1-.6-.22-1.2-.32-1.8,0-.13-.07-.17-.19-.17h-3.6a.28.28,0,0,0-.26.16c-.38.6-.76,1.21-1.15,1.81,0,.07-.08.16-.2.16Z"></path><path class="cls-3" d="M48.42,15.37l.91-3.68c.6-2.42,1.19-4.83,1.79-7.25,0-.17.09-.24.28-.24h4.76Q56,5.1,55.74,6C55,9,54.23,12,53.48,15.09c0,.2-.11.29-.34.28H48.42Z"></path><path class="cls-3" d="M78.86,4.21c-.32,1.31-.64,2.6-1,3.89-.58,2.35-1.16,4.69-1.73,7,0,.17-.1.23-.29.23H71.36c-.19,0-.24,0-.19-.22Q72.49,9.81,73.8,4.47c0-.21.13-.27.34-.27,1.49,0,3,0,4.45,0Z"></path><path class="cls-4" d="M25.06,12.78h-1c-.18,0-.2,0-.16-.22q.66-2.69,1.29-5.39c0-.08,0-.17.15-.17A20.23,20.23,0,0,1,27.4,7a1.37,1.37,0,0,1,1.38,1.3,4,4,0,0,1-.55,3.05,3,3,0,0,1-2.6,1.4Z"></path><path class="cls-4" d="M38.94,10.7l.08-.17,1.49-2.69.16.9c.11.61.21,1.21.33,1.82,0,.12,0,.14-.11.14Z"></path></g></g></svg>