<svg xmlns="http://www.w3.org/2000/svg" viewBox="0 0 95.66 19.7"><defs><style>.cls-1{fill:#00549e;}.cls-2{fill:#010101;}.cls-3{fill:#c6cde6;}.cls-4{fill:#c5cde6;}.cls-5{fill:#535353;}.cls-6{fill:#fefefe;}.cls-7{fill:#020202;}.cls-8{fill:#ececec;}</style></defs><g id="Capa_2" data-name="Capa 2"><g id="Capa_1-2" data-name="Capa 1"><path class="cls-1" d="M.13,9.94,2.76,9.1C3,9,3.1,9,3.18,9.24c0,0,0,0,0,.08.09.19.37.3.33.51s-.23.35-.36.52c-.44.61-.88,1.23-1.34,1.83-.12.16-.09.23.06.33a7.54,7.54,0,0,1,.73.53c.17.14.24.08.35-.07.52-.73,1.06-1.45,1.58-2.18.11-.15.2-.2.36-.1l.2.07c.51.18.51.18.51.73,0,.77,0,1.55,0,2.33,0,.22.07.27.28.26a5.61,5.61,0,0,1,.82,0C7,14.1,7,14,7,13.79s0-.72,0-1.14c.46.27.9.5,1.31.76.19.11.28.09.36-.1s.41-.48.35-.71-.43-.29-.66-.43l-1.18-.68c-.1-.06-.18-.11-.18-.25V8.41l1.26.72c.37.21.73.43,1.11.63a.4.4,0,0,1,.24.4c0,.63,0,1.25,0,1.88,0,.2.06.26.26.25s.62.11.79-.06,0-.51.05-.78,0-.45,0-.67.07-.21.23-.12l.81.48c.13.08.22.1.3-.07s.32-.57.49-.84.07-.2-.07-.28c-.35-.18-.68-.39-1.06-.6.44-.26.86-.52,1.29-.75.19-.1.22-.19.1-.36s-.22-.59-.44-.65-.47.22-.71.35l-1.18.68a.25.25,0,0,1-.3,0L7.77,7.25c0-.09.09-.11.15-.15.73-.42,1.46-.83,2.18-1.26a.35.35,0,0,1,.41,0c.55.33,1.11.63,1.65,1,.18.11.25.08.34-.09s.38-.5.35-.71-.42-.3-.64-.44l-.8-.46c.36-.21.7-.42,1-.6.15-.08.18-.15.08-.3s-.33-.55-.48-.83-.14-.17-.27-.08c-.34.21-.68.39-1.08.62,0-.51,0-1,0-1.45,0-.23-.06-.32-.3-.29s-.6-.11-.75.06,0,.49-.05.74c0,.44,0,.88,0,1.33a.36.36,0,0,1-.2.36L7.24,5.91C7.06,6,7,6,7,5.78,7,5,7,4.12,7,3.3a.35.35,0,0,1,.2-.36c.56-.31,1.1-.64,1.66-.95.2-.1.21-.19.09-.36a4.37,4.37,0,0,1-.32-.55C8.57.93,8.49.94,8.36,1c-.43.26-.86.5-1.35.78V.51c0-.12.06-.15.17-.15a.75.75,0,0,0,.15,0c3.8,0,7.59,0,11.39,0,.26,0,.31.06.31.31Q19,9.85,19,19c0,.27-.08.31-.32.31H0V10S.09,10,.13,9.94Z"></path><path d="M47.94.05a8.64,8.64,0,0,1,8,6.51,12.25,12.25,0,0,1-.23,7.29A8.25,8.25,0,0,1,50,19.26a10,10,0,0,1-7.46-.63,8.11,8.11,0,0,1-4.32-5.23,12.07,12.07,0,0,1,.12-7.47A8.37,8.37,0,0,1,44.79.24c.47-.1,1-.16,1.44-.24h1.1C47.53.08,47.74,0,47.94.05Z"></path><path class="cls-1" d="M0,.36c1.79,0,3.58,0,5.37,0,.23,0,.29,0,.29.28,0,.89,0,1.77,0,2.66,0,.18,0,.29-.23.3a.73.73,0,0,0-.2,0c-.52.17-.52.17-.82-.26-.47-.64-1-1.28-1.41-1.93-.12-.17-.2-.17-.34-.05a7.67,7.67,0,0,1-.74.53c-.17.11-.15.19,0,.33l1.61,2.2c.1.14.12.23,0,.35a.77.77,0,0,0-.22.29c-.13.33-.35.29-.62.2C1.78,5,.92,4.76.06,4.49c0,0,0,0-.06,0Z"></path><path class="cls-1" d="M.05,5.88l2.33.77c.19.06.27.14.24.33s.11.56-.06.73-.44.16-.67.24c-.6.22-1.23.35-1.82.6,0,0,0,0-.07,0V5.88S0,5.85.05,5.88Z"></path><path class="cls-2" d="M94.23,0a2.13,2.13,0,0,1,1.11.73,1.88,1.88,0,0,1,0,2.15,1.85,1.85,0,0,1-2.07.59A1.73,1.73,0,0,1,92.1,1.69,1.72,1.72,0,0,1,93.43.06.52.52,0,0,0,93.56,0Z"></path><path class="cls-3" d="M0,8.54H.07c0,.38,0,.77,0,1.15,0,.09,0,.18.07.24L0,10Z"></path><path class="cls-4" d="M.05,5.88H0V4.48H.06Z"></path><path class="cls-5" d="M47.94.05a1.16,1.16,0,0,1-.61,0h.61A0,0,0,0,0,47.94.05Z"></path><path d="M73.67,19.32H68.48a.42.42,0,0,1-.41-.23c-1.22-2-2.46-4-3.69-6.07a.47.47,0,0,0-.5-.28,5.21,5.21,0,0,1-.79,0c-.23,0-.29,0-.29.27,0,2,0,4,0,5.94,0,.32-.09.37-.38.37-1.47,0-2.94,0-4.41,0-.25,0-.29-.08-.29-.3q0-9.18,0-18.36c0-.24,0-.31.31-.31,2.64,0,5.29,0,7.93,0a10,10,0,0,1,4,.82A4.93,4.93,0,0,1,73,5.31a8.6,8.6,0,0,1-.08,3A4.86,4.86,0,0,1,69.59,12c-.26.09-.26.15-.13.37l4.07,6.72C73.57,19.14,73.61,19.22,73.67,19.32Z"></path><path d="M91.81,19.32H86.15c-.18,0-.23-.11-.29-.21l-4.18-7c-.05-.09-.11-.19-.19-.31l-1.4,1.76c-.08.1,0,.22,0,.33,0,1.72,0,3.45,0,5.18,0,.22,0,.3-.29.3H75.17c-.23,0-.27-.06-.27-.28V.64c0-.23,0-.28.27-.28q2.3,0,4.59,0c.25,0,.29.08.29.3,0,1.95,0,3.9,0,5.85v.34c.14,0,.18-.12.23-.19L85.11.56c.08-.1.14-.2.31-.2,1.92,0,3.84,0,5.83,0L90.09,1.72c-1.69,2-3.37,4-5.07,5.91a.34.34,0,0,0,0,.47L91.6,19C91.66,19.07,91.72,19.18,91.81,19.32Z"></path><path d="M21.29.36c1.94,0,3.82,0,5.7,0,.19,0,.24.1.31.22L30.35,5.9a3.09,3.09,0,0,0,.16.27c.08-.14.16-.25.22-.37l3-5.23c.06-.1.08-.21.25-.21,1.89,0,3.79,0,5.68,0,0,.12-.06.18-.1.26q-3.18,5.3-6.37,10.59a.92.92,0,0,0-.11.46q0,3.67,0,7.36c0,.22,0,.3-.3.3H28.26c-.27,0-.35,0-.35-.34,0-2.43,0-4.86,0-7.3a.93.93,0,0,0-.15-.53L21.55.79C21.47.67,21.4.54,21.29.36Z"></path><path class="cls-1" d="M5.63,9.49A2.31,2.31,0,0,1,4,7.86,2.37,2.37,0,0,1,5.42,5c.13,0,.25-.11.24.12V9.4A.29.29,0,0,1,5.63,9.49Z"></path><path class="cls-6" d="M42.83,9.83a8.21,8.21,0,0,1,.55-3.1,3.92,3.92,0,0,1,7.29,0,8.6,8.6,0,0,1,.52,3.86,7.32,7.32,0,0,1-.76,2.93,3.85,3.85,0,0,1-6,1.05A5.18,5.18,0,0,1,43,11.79,9.94,9.94,0,0,1,42.83,9.83Z"></path><path class="cls-6" d="M95.28,1.83a1.37,1.37,0,0,1-1.44,1.39,1.4,1.4,0,0,1-1.37-1.5,1.41,1.41,0,1,1,2.81.11Z"></path><path class="cls-6" d="M62.81,6.68V4.75c0-.11,0-.22.15-.22a28.61,28.61,0,0,1,3.21.08,2.36,2.36,0,0,1,1.25.49A1.9,1.9,0,0,1,68,6.77a1.92,1.92,0,0,1-2,2c-1,.11-2,0-3,.07-.16,0-.17-.07-.17-.2Z"></path><path class="cls-7" d="M94.71,2.69c-.46.18-.6-.12-.73-.42,0-.11-.08-.27-.25-.21s0,.19-.08.28.16.37-.17.39-.33,0-.32-.3c0-.48,0-1,0-1.45,0-.16,0-.21.21-.21s.48,0,.73,0a.54.54,0,0,1,.54.36.62.62,0,0,1-.16.75c-.13.09-.11.16,0,.27S94.62,2.52,94.71,2.69Z"></path><path class="cls-8" d="M93.65,1.44c0-.15,0-.27.19-.24s.38,0,.37.25-.18.22-.35.24S93.63,1.59,93.65,1.44Z"></path></g></g></svg>