<svg xmlns="http://www.w3.org/2000/svg" viewBox="0 0 95.43 18.82"><defs><style>.cls-1{fill:#d9291c;}.cls-2{fill:#eb918a;}.cls-3{fill:#fefefe;}.cls-4{fill:#fefdfd;}</style></defs><g id="Capa_2" data-name="Capa 2"><g id="Capa_1-2" data-name="Capa 1"><path class="cls-1" d="M70.56,0l1.23,0h.6c.07,0,.1,0,.09.09v0c0,4.77,0,9.54,0,14.31,0,.18,0,.22-.21.22-.87,0-1.74,0-2.62,0-.08,0-.1,0-.1-.11a.33.33,0,0,0,0-.1q0-7.15,0-14.33a.37.37,0,0,1,0-.18H70A4.78,4.78,0,0,0,70.56,0Z"></path><path class="cls-1" d="M95.43,5.14a1.67,1.67,0,0,1-2.49,1.25,1.63,1.63,0,0,1-.83-1.62,1.63,1.63,0,0,1,1.51-1.49,1.66,1.66,0,0,1,1.77,1.28.85.85,0,0,1,0,.17Z"></path><path class="cls-2" d="M70.56,0A1.58,1.58,0,0,1,70,0h.53Z"></path><path class="cls-1" d="M21,11.39a8.69,8.69,0,0,1-.64,1.34,4.57,4.57,0,0,1-1.85,1.77,5.47,5.47,0,0,1-1.94.55,7.61,7.61,0,0,1-3-.21,4.6,4.6,0,0,1-2.81-2.28,6.19,6.19,0,0,1-.59-1.4.21.21,0,0,0,0,.12,5,5,0,0,1-1.3,2.44A4.46,4.46,0,0,1,6.1,15.05,6.7,6.7,0,0,1,3,14.75a4,4,0,0,1-2.18-1.9A6.44,6.44,0,0,1,0,10,9.24,9.24,0,0,1,.2,7.39,5.69,5.69,0,0,1,1.35,5,4.37,4.37,0,0,1,3.92,3.5a6.63,6.63,0,0,1,3.28.12A4.39,4.39,0,0,1,9,4.53,3.63,3.63,0,0,1,9.9,6a6.33,6.33,0,0,1,.28,1.14c.06,0,.06-.08.07-.12a6.33,6.33,0,0,1,1.09-2,4.3,4.3,0,0,1,2.31-1.49,7.41,7.41,0,0,1,4.07,0,4.61,4.61,0,0,1,2.72,2.29,6.56,6.56,0,0,1,.83,2.93A7.51,7.51,0,0,1,21.06,11c0,.15,0,.16.13.16h2.52c.23,0,.24,0,.27.22a1.39,1.39,0,0,0,.74,1.16,2.47,2.47,0,0,0,.84.25,4.42,4.42,0,0,0,1.62,0,1.76,1.76,0,0,0,.62-.25.81.81,0,0,0-.07-1.41,5.24,5.24,0,0,0-1-.36c-.78-.23-1.59-.39-2.37-.61a7.53,7.53,0,0,1-1.77-.71,2.42,2.42,0,0,1-1.22-1.95A3.65,3.65,0,0,1,24,3.59a7,7,0,0,1,2.61-.25,6.58,6.58,0,0,1,2,.44,3.31,3.31,0,0,1,2.14,2.6c0,.16.05.32.08.49s0,.16-.15.16c-.87,0-1.73,0-2.6,0-.13,0-.17,0-.19-.16a1.5,1.5,0,0,0-.27-.71,1.39,1.39,0,0,0-.81-.5,3.12,3.12,0,0,0-2,.09A.84.84,0,0,0,24.36,7a1,1,0,0,0,.51.35A21.79,21.79,0,0,0,27,7.88a10.79,10.79,0,0,1,2.1.62,3.4,3.4,0,0,1,1.67,1.39,3,3,0,0,1,.37,1.7,3.32,3.32,0,0,1-.56,1.72,3.6,3.6,0,0,1-2.18,1.51,7.88,7.88,0,0,1-1.93.27,8.89,8.89,0,0,1-2.67-.27,3.89,3.89,0,0,1-2.22-1.57A3.78,3.78,0,0,1,21,11.43.08.08,0,0,0,21,11.39Z"></path><path class="cls-1" d="M34.12,5.2c.23-.3.41-.59.63-.84a2.84,2.84,0,0,1,1.37-.82,4.54,4.54,0,0,1,2.53,0,2.52,2.52,0,0,1,1.47,1.27c.07.12.13.25.2.38a7.32,7.32,0,0,1,.52-.69,3.18,3.18,0,0,1,1.43-.93,4.23,4.23,0,0,1,2.44-.1,3.16,3.16,0,0,1,2.39,2.6,6,6,0,0,1,.09,1.12v7.24c0,.24,0,.25-.27.25-.84,0-1.68,0-2.52,0-.17,0-.21,0-.21-.2v-7a2,2,0,0,0-.24-1,1.24,1.24,0,0,0-.86-.65,2.05,2.05,0,0,0-1.48.16,1.8,1.8,0,0,0-.86,1.33,4.36,4.36,0,0,0,0,.72c0,1.6,0,3.2,0,4.79,0,.53,0,1.06,0,1.58,0,.19-.05.22-.24.22-.81,0-1.63,0-2.44,0-.23,0-.27,0-.27-.25V7.87a3.33,3.33,0,0,0-.13-.94,1.28,1.28,0,0,0-1.06-1,2.48,2.48,0,0,0-1.15,0,1.49,1.49,0,0,0-1.14,1.41,7.69,7.69,0,0,0,0,.83c0,1.52,0,3,0,4.55,0,.57,0,1.13,0,1.7,0,.23,0,.26-.26.26-.84,0-1.69,0-2.53,0-.14,0-.19-.05-.18-.18s0-.43,0-.64V3.84c0-.19,0-.19.19-.19h2.47c.16,0,.18,0,.18.18V5.2Z"></path><path class="cls-1" d="M61.61,13.36v2.82c0,.85,0,1.7,0,2.56,0,.1-.05.08-.11.08H58.85c-.1,0-.14,0-.14-.12q0-7.44,0-14.88c0-.17,0-.19.18-.19l.93,0,1.48,0c.19,0,.2,0,.2.21V5.21L62,4.64a3.46,3.46,0,0,1,1.89-1.15,4.24,4.24,0,0,1,3.36.59,4.45,4.45,0,0,1,2,3.06,8.79,8.79,0,0,1,.21,2.11,8,8,0,0,1-.6,3.06,4.44,4.44,0,0,1-5.69,2.44,3.18,3.18,0,0,1-1.43-1.21Z"></path><path class="cls-1" d="M79.59,13.45a7.14,7.14,0,0,1-1,.82,4.16,4.16,0,0,1-2.48.79,4,4,0,0,1-1.84-.37,2.87,2.87,0,0,1-1.66-2.33,4,4,0,0,1,.26-2.15A3,3,0,0,1,74.6,8.6a8.52,8.52,0,0,1,2.23-.52,12.24,12.24,0,0,0,1.8-.28,1.27,1.27,0,0,0,.71-.42,1,1,0,0,0-.45-1.46,3.23,3.23,0,0,0-2.06-.09,1.37,1.37,0,0,0-1,1.06c-.09.34,0,.36-.46.36H73.22C73,7.25,73,7.25,73,7a4.07,4.07,0,0,1,.66-2,3.34,3.34,0,0,1,2-1.39,9.33,9.33,0,0,1,2-.26A7.18,7.18,0,0,1,81,4.09a2.44,2.44,0,0,1,1.31,1.7,4.83,4.83,0,0,1,.11,1.08v6a4.45,4.45,0,0,0,.08.81.74.74,0,0,0,.37.52.44.44,0,0,1,.16.51c0,.05-.07,0-.11,0H80a.25.25,0,0,1-.25-.19,4.91,4.91,0,0,1-.18-1S79.59,13.5,79.59,13.45Z"></path><path class="cls-1" d="M58.65,9a7.71,7.71,0,0,1-.36,2.46,5.23,5.23,0,0,1-2.06,2.84,5.33,5.33,0,0,1-2.35.78,7.21,7.21,0,0,1-3.29-.34,4.52,4.52,0,0,1-2.36-2,6.45,6.45,0,0,1-.91-3,6.9,6.9,0,0,1,.49-3.27,5.22,5.22,0,0,1,2-2.44,5.08,5.08,0,0,1,2.06-.72,8,8,0,0,1,2.58,0A4.7,4.7,0,0,1,56.9,4.65a6,6,0,0,1,1.33,2.12A6.41,6.41,0,0,1,58.65,9Z"></path><path class="cls-1" d="M84.07,11.16h1.31c.13,0,.18.05.19.17a1.38,1.38,0,0,0,.89,1.27,3.86,3.86,0,0,0,2.8,0,.77.77,0,0,0,.51-.75.81.81,0,0,0-.55-.81,20.15,20.15,0,0,0-2.3-.66,13.28,13.28,0,0,1-2-.61A3.75,3.75,0,0,1,83.65,9a2.44,2.44,0,0,1-.72-1.69,3.47,3.47,0,0,1,.46-2,3.76,3.76,0,0,1,2.17-1.7,7,7,0,0,1,2.07-.31,7.08,7.08,0,0,1,2.83.6,3.15,3.15,0,0,1,1.81,2.22,6,6,0,0,1,.13.74c0,.15,0,.18-.14.18-.87,0-1.73,0-2.59,0a.17.17,0,0,1-.2-.17,1.41,1.41,0,0,0-.8-1.12A2.31,2.31,0,0,0,88,5.58a3.66,3.66,0,0,0-1.47.12.94.94,0,0,0-.68.85.7.7,0,0,0,.42.67,5.87,5.87,0,0,0,1.29.41c.81.22,1.65.35,2.45.61a4.76,4.76,0,0,1,1.86,1,2.6,2.6,0,0,1,.82,1.52,3.42,3.42,0,0,1-.76,2.88,3.75,3.75,0,0,1-2,1.2,8.06,8.06,0,0,1-1.83.24,9.21,9.21,0,0,1-2.4-.21,4,4,0,0,1-2.42-1.54,3.8,3.8,0,0,1-.63-1.87c0-.31,0-.31.29-.31Z"></path><path class="cls-3" d="M95.13,5a1.37,1.37,0,0,1-2.74,0,1.37,1.37,0,1,1,2.74,0Z"></path><path class="cls-3" d="M8.66,10.69H7.4c-.13,0-.18,0-.2.17a2.55,2.55,0,0,1-.32,1,1.38,1.38,0,0,1-.91.71,2.49,2.49,0,0,1-1.43,0A2,2,0,0,1,3.3,11.2a6.75,6.75,0,0,1-.25-2.28,7.18,7.18,0,0,1,.33-1.77,2.09,2.09,0,0,1,3.23-.89,1.77,1.77,0,0,1,.57,1c.09.36,0,.33.43.33H9.92c.16,0,.17,0,.14.17a7.43,7.43,0,0,0,0,2.78c0,.11,0,.12-.12.12Z"></path><path class="cls-3" d="M18.24,9.23a4.91,4.91,0,0,1-.48,2.17,2.18,2.18,0,0,1-2,1.25,2.78,2.78,0,0,1-1.24-.22A2.31,2.31,0,0,1,13.25,11,4.68,4.68,0,0,1,13,9.44a5.6,5.6,0,0,1,.2-1.82A2.43,2.43,0,0,1,14.45,6a2.68,2.68,0,0,1,2.91.43A2.82,2.82,0,0,1,18,7.57,5.8,5.8,0,0,1,18.24,9.23Z"></path><path class="cls-3" d="M61.5,9.4a5.93,5.93,0,0,1,.3-2.05,2.19,2.19,0,0,1,1.37-1.47,2.48,2.48,0,0,1,2.43.35,2.55,2.55,0,0,1,.77,1.21,5.34,5.34,0,0,1,.31,1.86,4.85,4.85,0,0,1-.62,2.32,2.17,2.17,0,0,1-1.84,1.06,2.37,2.37,0,0,1-1.64-.47,2.54,2.54,0,0,1-.94-1.56A4.8,4.8,0,0,1,61.5,9.4Z"></path><path class="cls-3" d="M79.49,10a4.5,4.5,0,0,1-.14,1.33A2,2,0,0,1,78,12.75a2.82,2.82,0,0,1-1.32.17,1.22,1.22,0,0,1-1.1-1.19,1.46,1.46,0,0,1,.37-1.17,1.94,1.94,0,0,1,.9-.46c.52-.15,1.06-.21,1.59-.33a3.51,3.51,0,0,0,1-.36c.07-.05.09,0,.09.05Z"></path><path class="cls-3" d="M55.57,9.14a4.67,4.67,0,0,1-.39,2.14,2.25,2.25,0,0,1-2.1,1.37,2.6,2.6,0,0,1-1.42-.31,2.4,2.4,0,0,1-1.12-1.54A5.68,5.68,0,0,1,50.31,9a4.39,4.39,0,0,1,.58-2.2,2.23,2.23,0,0,1,1.86-1.06,2.82,2.82,0,0,1,1.19.17,2.28,2.28,0,0,1,1.29,1.31A4.42,4.42,0,0,1,55.57,9.14Z"></path><path class="cls-1" d="M94,5.07a3.79,3.79,0,0,1,.56.77c-.29.08-.37,0-.51-.2s-.14-.23-.21-.35a.39.39,0,0,0-.2-.16c-.22-.08-.29,0-.29.19v.42c0,.12-.07.13-.16.13s-.16,0-.16-.13V4.18c0-.09,0-.12.11-.12h.75a.49.49,0,0,1,.25.94Z"></path><path class="cls-4" d="M93.62,4.84h-.19c-.17-.09-.06-.25-.09-.37s0-.12.12-.13a1.07,1.07,0,0,1,.4,0c.15,0,.22.1.23.23s-.07.21-.23.25A.67.67,0,0,1,93.62,4.84Z"></path></g></g></svg>