<svg xmlns="http://www.w3.org/2000/svg" viewBox="0 0 95.04 38.12"><defs><style>.cls-1{fill:#0098d9;}.cls-2{fill:#0199d9;}.cls-3{fill:#79c9eb;}.cls-4{fill:#7ac9eb;}.cls-5{fill:#7bc9eb;}.cls-6{fill:#84cdec;}.cls-7{fill:#7ecbeb;}.cls-8{fill:#7dcaeb;}.cls-9{fill:#77c8ea;}.cls-10{fill:#76c8ea;}.cls-11{fill:#82ccec;}.cls-12{fill:#74c7ea;}.cls-13{fill:#6ec4e9;}.cls-14{fill:#8bd0ed;}.cls-15{fill:#7bcaeb;}.cls-16{fill:#78c8ea;}.cls-17{fill:#fefefe;}</style></defs><g id="Capa_2" data-name="Capa 2"><g id="Capa_1-2" data-name="Capa 1"><path class="cls-1" d="M19.93,38.09h-2.3c-.15-.08-.31,0-.46-.05-.74-.08-1.49-.16-2.23-.31-.55-.12-1.11-.25-1.66-.42s-1.13-.36-1.69-.56a11.57,11.57,0,0,1-1.14-.5c-.51-.25-1-.51-1.51-.8A20.24,20.24,0,0,1,6.3,33.59a17.39,17.39,0,0,1-2.92-3.14,19.75,19.75,0,0,1-1.81-3C1.14,26.56.8,25.64.46,24.71c-.13-.37-.21-.77-.34-1.15a.25.25,0,0,1,0-.12c0-.06,0-.12.07-.13s.08,0,.1.09a7.76,7.76,0,0,0,.44.92,20.82,20.82,0,0,0,1.07,1.83,21.12,21.12,0,0,0,1.81,2.39,21.49,21.49,0,0,0,2.73,2.58A19.66,19.66,0,0,0,11.4,34a16.35,16.35,0,0,0,1.79.6,21.92,21.92,0,0,0,2.68.54,18,18,0,0,0,3,.18,16.69,16.69,0,0,0,2.33-.16c.45-.08.92-.16,1.38-.22a7.36,7.36,0,0,0,1.13-.25c.31-.08.62-.15.93-.24s.79-.27,1.19-.39c.67-.21,1.3-.52,1.95-.79a3.86,3.86,0,0,0,.41-.2c.18-.08.19-.24.18-.41,0-.51-.15-1-.19-1.5S28,29.92,28,29.31c-.11-.85-.21-1.71-.33-2.56a12.33,12.33,0,0,0-.23-1.6c0-.56-.18-1.11-.19-1.68,0-.06,0-.15-.08-.16s-.08.08-.1.13c-.16.43-.28.88-.45,1.31a13.51,13.51,0,0,1-1.25,2.42A14.42,14.42,0,0,1,24,28.87a12.64,12.64,0,0,1-2.7,2.19,9.92,9.92,0,0,1-2.08,1,13.55,13.55,0,0,1-2.27.6,15.24,15.24,0,0,1-2.13.14c-.12,0-.33,0-.33-.09s.18-.06.28-.09a16.19,16.19,0,0,0,1.7-.58,11.76,11.76,0,0,0,1.6-.87,11.91,11.91,0,0,0,1.44-1.1,15.82,15.82,0,0,0,3-3.77,19.73,19.73,0,0,0,.92-1.84c.2-.43.41-.87.57-1.31.2-.59.43-1.17.59-1.77s.25-1,.4-1.48a9,9,0,0,0,.21-.9c.14-.79.29-1.59.38-2.4.07-.61.13-1.22.15-1.84,0-.28.08-.56.09-.84a.29.29,0,0,1,.33-.29h3.24a.34.34,0,0,1,.28.11,1.77,1.77,0,0,1,.19.63c.1.78.22,1.56.33,2.34.13.93.27,1.85.39,2.79.08.64.18,1.28.27,1.92.16,1.08.33,2.16.47,3.25l.24,1.77a16.78,16.78,0,0,0,.26,1.73c.05.19,0,.39.08.58s0,.19.08.22.16-.06.21-.13c.34-.46.67-.93,1-1.41a18,18,0,0,0,1.14-2.06A15.15,15.15,0,0,0,35,23.49c.13-.43.27-.86.39-1.3s.18-.81.26-1.23c.12-.6.17-1.21.25-1.82A16.27,16.27,0,0,0,36,16.93V14.15c0-.41.12-.53.54-.53h2.76c.52,0,.52,0,.6.52.15.91.31,1.81.45,2.71.08.47.17.95.26,1.43a11.37,11.37,0,0,1,.23,1.44,8.05,8.05,0,0,0,.17,1c.1.52.19,1.06.27,1.59.12.74.27,1.49.38,2.24.08.57.19,1.13.28,1.69s.16.93.25,1.39c.14.83.23,1.67.43,2.5.09.65.18,1.31.33,2a1.52,1.52,0,0,1,0,.21c0,.18,0,.27-.24.27h-4a.23.23,0,0,1-.27-.23c-.1-.85-.24-1.69-.38-2.53s-.25-1.66-.39-2.48c-.1-.58-.18-1.17-.27-1.75s-.21-1.48-.36-2.25a1.2,1.2,0,0,0-.26.62,3.89,3.89,0,0,1-.22.81A16.86,16.86,0,0,1,36,26.53c-.29.66-.57,1.33-.91,2a21.53,21.53,0,0,1-1.4,2.24,18.46,18.46,0,0,1-1.44,1.74,18.17,18.17,0,0,1-3,2.56,10.18,10.18,0,0,1-1.32.78,14.57,14.57,0,0,1-1.69.81c-.48.2-1,.38-1.45.55-.21.08-.43.13-.64.19a14.64,14.64,0,0,1-2.55.54,8.29,8.29,0,0,1-1.5.15A.28.28,0,0,0,19.93,38.09Z"></path><path class="cls-1" d="M20.15,0h.14a.55.55,0,0,0,.25.07,19.08,19.08,0,0,1,3.11.43,21.09,21.09,0,0,1,2.06.6,20.63,20.63,0,0,1,2.37,1,17.78,17.78,0,0,1,1.58.94,16.93,16.93,0,0,1,3.18,2.73A16.23,16.23,0,0,1,34.5,7.92c.34.51.67,1,1,1.58A10.19,10.19,0,0,1,36.18,11a2.81,2.81,0,0,1,.17.35c0,.07,0,.14,0,.18s-.13,0-.17-.08a15.49,15.49,0,0,0-2.3-2.62A16.57,16.57,0,0,0,31.49,7c-.58-.37-1.17-.73-1.78-1a14.42,14.42,0,0,0-1.32-.61,15,15,0,0,0-1.46-.54c-.58-.18-1.16-.35-1.75-.48s-1-.22-1.46-.27a21,21,0,0,0-3.07-.19c-.67,0-1.33.08-2,.15a19.83,19.83,0,0,0-2.88.57,17,17,0,0,0-2.34.81A20,20,0,0,0,10,7.28a19,19,0,0,0-3.08,2.79A15,15,0,0,0,5.13,12.5a15.43,15.43,0,0,0-1.08,2.15,17.5,17.5,0,0,0-.72,2.07,19.19,19.19,0,0,0-.45,2.13c-.09.54-.12,1.07-.17,1.61a12.35,12.35,0,0,0,0,1.36A12.67,12.67,0,0,0,3,24.2a.9.9,0,0,1,0,.16c0,.06,0,.12-.08.14s-.11,0-.15-.1c-.19-.42-.38-.83-.55-1.26a17.5,17.5,0,0,1-.57-1.73,17.58,17.58,0,0,1-.46-2.8,11.43,11.43,0,0,1,0-1.85,19.74,19.74,0,0,1,.27-2.41,16.09,16.09,0,0,1,.38-1.7,18.8,18.8,0,0,1,.6-1.79c.22-.54.47-1.07.74-1.6A12.94,12.94,0,0,1,4,7.8,16.17,16.17,0,0,1,5.47,6a14.66,14.66,0,0,1,1.44-1.4,17.43,17.43,0,0,1,2.79-2,18.55,18.55,0,0,1,1.9-.93c.49-.2,1-.41,1.47-.57s.92-.3,1.4-.41,1.06-.25,1.6-.34A20.76,20.76,0,0,1,19.93.06.34.34,0,0,0,20.15,0Z"></path><path class="cls-2" d="M48.65,25.66v6.52c0,.35,0,.35-.36.35H45.61c-.2,0-.29-.05-.28-.26s0-.22,0-.33V19.26c0-.49,0-.49.48-.49.84,0,1.69,0,2.53,0,.25,0,.32.07.32.32C48.64,21.28,48.65,23.47,48.65,25.66Z"></path><path class="cls-1" d="M47,17H45.55c-.18,0-.24-.06-.24-.24,0-.88,0-1.75,0-2.63,0-.4.1-.49.51-.49h2.38c.37,0,.43.07.43.43,0,.88,0,1.75,0,2.63,0,.25-.08.31-.31.3-.46,0-.91,0-1.37,0Z"></path><path class="cls-3" d="M20.15,0c0,.13-.15.08-.24.08-.38,0-.76,0-1.13,0-.72,0-1.44.08-2.15.17A11.14,11.14,0,0,0,15,.58c-.52.13-1,.27-1.55.43a15.65,15.65,0,0,0-1.58.56A21.07,21.07,0,0,0,10,2.49,18.06,18.06,0,0,0,8.1,3.67,17.19,17.19,0,0,0,5.54,5.93a14.87,14.87,0,0,0-2,2.71A16.13,16.13,0,0,0,2.28,11.3,15.3,15.3,0,0,0,1.52,14a13.82,13.82,0,0,0-.25,1.81c0,.7-.1,1.4-.09,2.1a13.15,13.15,0,0,0,.17,1.89,11.81,11.81,0,0,0,.47,2.12,18.61,18.61,0,0,0,1,2.47s0,.1.1.08,0-.08,0-.12-.07-.35-.1-.52a12.69,12.69,0,0,1-.2-3.07,18.56,18.56,0,0,1,.46-3.32,19.6,19.6,0,0,1,.83-2.63,16.45,16.45,0,0,1,1.31-2.58,18.51,18.51,0,0,1,3.1-3.68,17,17,0,0,1,2.73-2,18,18,0,0,1,2.71-1.34,16.6,16.6,0,0,1,1.68-.57c.52-.15,1-.3,1.56-.41s1.18-.2,1.77-.28a15.57,15.57,0,0,1,2.64-.13c.66,0,1.33.08,2,.15s1.38.23,2.07.36a8.62,8.62,0,0,1,1,.27c.42.13.85.24,1.26.4.56.22,1.11.47,1.66.72A16.12,16.12,0,0,1,31.6,7a15.3,15.3,0,0,1,1.76,1.36c.4.35.79.72,1.15,1.1a13.69,13.69,0,0,1,1.66,2c0,.05.06.11.11.09s0-.12,0-.18c-.22-.48-.43-1-.67-1.43s-.63-1.12-1-1.67a17.48,17.48,0,0,0-3-3.59,16,16,0,0,0-2.65-2,18.65,18.65,0,0,0-2-1c-.5-.22-1-.43-1.51-.6A18.77,18.77,0,0,0,23,.43,15.62,15.62,0,0,0,20.64.17c-.13,0-.28,0-.35-.15a5.16,5.16,0,0,1,1.24.11,12.84,12.84,0,0,1,2.22.36,17.45,17.45,0,0,1,2,.59c.58.22,1.16.44,1.72.71A16.29,16.29,0,0,1,29.66,3a17.63,17.63,0,0,1,2.93,2.45,19.86,19.86,0,0,1,1.95,2.44,18.18,18.18,0,0,1,1.29,2.21,18.56,18.56,0,0,1,.8,1.82.23.23,0,0,1-.28-.11,16.93,16.93,0,0,0-2.56-3A17.14,17.14,0,0,0,31,6.68a18.71,18.71,0,0,0-4.51-2c-.57-.17-1.15-.3-1.73-.43A14.45,14.45,0,0,0,22.86,4a14.1,14.1,0,0,0-2.34-.1,25.85,25.85,0,0,0-2.62.27c-.6.11-1.21.22-1.8.38s-1,.29-1.49.45a16.85,16.85,0,0,0-1.82.73,17.64,17.64,0,0,0-6.21,4.8,14.27,14.27,0,0,0-1.39,2A18.47,18.47,0,0,0,4.1,14.66c-.26.65-.5,1.32-.7,2S3.08,18,3,18.71a16.27,16.27,0,0,0-.22,3.12,10.72,10.72,0,0,0,.37,2.7.57.57,0,0,1,0,.18c0,.08,0,.2-.07.22s-.14-.09-.18-.18c-.19-.38-.37-.77-.55-1.17A17.12,17.12,0,0,1,1.74,22a12.12,12.12,0,0,1-.46-2,17.25,17.25,0,0,1-.19-1.73,17.19,17.19,0,0,1,.12-2.87c.06-.48.13-1,.21-1.42a13.11,13.11,0,0,1,.43-1.72c.12-.41.26-.82.41-1.22A16.24,16.24,0,0,1,4.51,7,16.82,16.82,0,0,1,7.15,4.28,17.94,17.94,0,0,1,9.67,2.54a20.16,20.16,0,0,1,1.86-.93c.5-.21,1-.42,1.52-.58a7.6,7.6,0,0,1,1.39-.4c.23,0,.45-.12.67-.17.77-.18,1.56-.24,2.33-.37A20.49,20.49,0,0,1,20.15,0Z"></path><path class="cls-4" d="M27.42,25.15a1.46,1.46,0,0,1,.14.65c.07.74.17,1.47.28,2.21a2.71,2.71,0,0,1,0,.4c.14,1,.25,2.05.41,3.07.07.42.07.84.16,1.25a.3.3,0,0,1-.18.34c-.42.2-.85.38-1.27.57a15.48,15.48,0,0,1-1.6.61c-.47.14-.94.3-1.42.41s-.69.19-1,.26-.94.16-1.41.24c-.81.13-1.64.15-2.45.2a20.33,20.33,0,0,1-2.34-.08,18.12,18.12,0,0,1-2.31-.34c-.51-.09-1-.28-1.52-.4a13.24,13.24,0,0,1-1.26-.41c-.46-.17-.92-.36-1.37-.56s-.82-.38-1.22-.59-.82-.48-1.23-.73a21,21,0,0,1-3.48-2.82,20.8,20.8,0,0,1-2.24-2.71A22.17,22.17,0,0,1,.76,24.53a7.1,7.1,0,0,1-.57-1.21c-.11.18,0,.29.06.42A13.47,13.47,0,0,0,1,26.07a17.33,17.33,0,0,0,1.08,2.26,20,20,0,0,0,2.48,3.5,19.71,19.71,0,0,0,2.75,2.5,12.74,12.74,0,0,0,2.12,1.36c.51.26,1,.51,1.55.74s1,.43,1.54.6c.69.22,1.4.41,2.11.57a23.35,23.35,0,0,0,2.89.4.13.13,0,0,1,.11.09A5.25,5.25,0,0,1,16.26,38a17.82,17.82,0,0,1-2.73-.54c-.59-.16-1.17-.37-1.74-.58A18.23,18.23,0,0,1,10,36.11a16.92,16.92,0,0,1-1.54-.88,17.29,17.29,0,0,1-2.66-2,17.86,17.86,0,0,1-3-3.45,18,18,0,0,1-1.4-2.45A16.79,16.79,0,0,1,.54,25C.36,24.47.17,23.91,0,23.33a1.1,1.1,0,0,1,0-.41,2.12,2.12,0,0,1,.42.72,16.12,16.12,0,0,0,.9,1.69A17.7,17.7,0,0,0,2.8,27.51,20.73,20.73,0,0,0,6,30.77,17.92,17.92,0,0,0,7.63,32a23.88,23.88,0,0,0,2.26,1.28c.57.28,1.16.53,1.75.75a15.9,15.9,0,0,0,1.93.58c.57.13,1.13.26,1.7.36a18.33,18.33,0,0,0,2.09.25,16.25,16.25,0,0,0,3,0c.61-.06,1.23-.13,1.84-.24a20.37,20.37,0,0,0,2.57-.59,17.32,17.32,0,0,0,2.86-1.08,2.71,2.71,0,0,1,.39-.17.45.45,0,0,0,.36-.56c-.1-.67-.2-1.33-.27-2s-.18-1.27-.26-1.9-.14-1.33-.26-2c-.06-.32-.06-.65-.09-1S27.34,25.34,27.42,25.15Z"></path><path class="cls-5" d="M76.08,26.3H71.36c-.21,0-.3,0-.25.28a3.46,3.46,0,0,0,1.73,2.52,5,5,0,0,0,2.93.64,5.86,5.86,0,0,0,3-1,4.5,4.5,0,0,0,.69-.62c.27-.31.29-.34.65-.15.2.1.41.17.61.26a.28.28,0,0,1,.16.4,6.56,6.56,0,0,1-2.25,2.95,6,6,0,0,1-2.39,1,7.38,7.38,0,0,1-2.48.08,8.38,8.38,0,0,1-1.59-.38,8.24,8.24,0,0,1-1.31-.62,6.84,6.84,0,0,1-3.18-4.1,7.85,7.85,0,0,1-.29-2.15,8.14,8.14,0,0,1,.44-2.33A7.59,7.59,0,0,1,69,21a6.61,6.61,0,0,1,1.52-1.37,5.67,5.67,0,0,1,1.72-.82,7.53,7.53,0,0,1,3.5-.23,6,6,0,0,1,2.77,1.22,6.38,6.38,0,0,1,1.76,2.26,8.18,8.18,0,0,1,.57,1.64,8.73,8.73,0,0,1,.25,2.44c0,.17-.13.16-.24.16H76.08Z"></path><path class="cls-6" d="M61.72,13.71a.47.47,0,0,1,.42-.15h2.4c.43,0,.55.12.55.55V32.22c0,.32,0,.37-.35.37H62c-.3,0-.35-.05-.35-.35V31.19c0-.06,0-.13,0-.17s-.11,0-.15.08a5.44,5.44,0,0,1-2.09,1.34,5.53,5.53,0,0,1-1.51.35,6.11,6.11,0,0,1-2.68-.34,5.52,5.52,0,0,1-2.76-2.17,6,6,0,0,1-.74-1.5,6.51,6.51,0,0,1-.4-2c0-.35-.06-.7-.05-1a9.82,9.82,0,0,1,.24-2.3,7.77,7.77,0,0,1,.6-1.58A6.28,6.28,0,0,1,53.5,20a7.18,7.18,0,0,1,1.36-.91,1.55,1.55,0,0,1,.23-.05.1.1,0,0,1,0,.09.48.48,0,0,1-.23.16,6.13,6.13,0,0,0-3.17,4,9.63,9.63,0,0,0-.23,3.7,6.77,6.77,0,0,0,.91,2.85,5.3,5.3,0,0,0,3.18,2.49,6.34,6.34,0,0,0,3,.1A5.31,5.31,0,0,0,61.34,31l.09-.09c.09-.08.19-.17.32-.1s.11.19.09.3a8.81,8.81,0,0,0,0,1c0,.2.09.29.3.29h2.5c.18,0,.25-.07.25-.26,0-5.95,0-11.89,0-17.83,0-.62,0-.56-.56-.56-.83,0-1.67,0-2.5,0A.14.14,0,0,1,61.72,13.71Z"></path><path class="cls-7" d="M42.61,30.11a4,4,0,0,1-.16-.7c-.1-.51-.16-1-.26-1.53S42,26.93,42,26.46s-.17-1-.25-1.44-.14-1-.23-1.49-.24-1.17-.31-1.76-.13-.87-.22-1.29a8.57,8.57,0,0,0-.26-1.43,3,3,0,0,1,0-.43c-.18-.88-.3-1.77-.46-2.65-.13-.66-.22-1.33-.33-2,0-.23-.14-.31-.38-.3h-3c-.3,0-.39.09-.39.41V16.5A22.41,22.41,0,0,1,36,19.22c-.07.56-.13,1.13-.25,1.7s-.23,1.17-.4,1.74-.27.85-.42,1.27-.38.94-.57,1.41a13.4,13.4,0,0,1-.68,1.3,19.31,19.31,0,0,1-1.46,2.22.8.8,0,0,1-.17.15c-.12.1-.2.07-.2-.08a12.61,12.61,0,0,0-.22-1.62c-.08-.55-.14-1.11-.24-1.65s-.17-1.31-.26-2c-.15-1-.34-2-.45-3s-.28-1.9-.38-2.85c-.06-.55-.18-1.1-.25-1.65s-.18-1.32-.26-2a3.35,3.35,0,0,0-.16-.54,0,0,0,0,1,0-.06.89.89,0,0,1,.26.57c.07.67.17,1.33.28,2s.15,1,.22,1.57.15,1.13.22,1.7l.3,2,.27,1.85c.09.62.16,1.25.25,1.88s.23,1.57.34,2.35c.05.39.09.78.17,1.17,0,0,0,.11.06.12s.1,0,.13-.08q.61-.83,1.17-1.71a15.61,15.61,0,0,0,1-1.8A19,19,0,0,0,35,23.42a23,23,0,0,0,.6-2.27c.1-.43.14-.86.2-1.29A49,49,0,0,0,36,14.05a.43.43,0,0,1,.47-.48h3c.35,0,.49.11.54.52a15,15,0,0,0,.24,1.52c.15.85.26,1.71.44,2.55.12.53.17,1.08.26,1.62.15.94.31,1.87.48,2.8s.26,1.59.41,2.38c.12.57.2,1.16.29,1.74.14.89.33,1.76.43,2.66a4.72,4.72,0,0,1,.14.75A0,0,0,0,1,42.61,30.11Z"></path><path class="cls-8" d="M29.63,13.66v.06a.62.62,0,0,0-.33-.05H26.21c-.3,0-.31.05-.35.34-.13.92-.1,1.86-.25,2.78-.08.48-.14,1-.23,1.45A17.88,17.88,0,0,1,25,20.11c-.09.31-.16.63-.24.94s-.25.86-.4,1.29-.28.72-.42,1.09a16.29,16.29,0,0,1-.77,1.71l-.53,1a15.39,15.39,0,0,1-.87,1.39A14.4,14.4,0,0,1,19.66,30,11,11,0,0,1,17,31.84a9.94,9.94,0,0,1-1.39.58,2.8,2.8,0,0,1-1.1.22c0,.06.07.09.08.09a9.36,9.36,0,0,0,2.05-.08c.42-.08.85-.12,1.26-.23s.53-.13.79-.22c.5-.19,1-.35,1.5-.59a15.11,15.11,0,0,0,1.42-.79,11.82,11.82,0,0,0,2.14-1.71,11.61,11.61,0,0,0,1.61-2,12.4,12.4,0,0,0,.81-1.42c.2-.45.41-.92.57-1.4.11-.33.2-.66.31-1,0-.07,0-.12.11-.12s.1.09.1.16c0,.61.22,1.21.2,1.83,0,.18.08.36,0,.54a.52.52,0,0,1-.09-.29c0-.67-.23-1.32-.21-2-.11,0-.11.07-.12.11a12.43,12.43,0,0,1-.83,2.2,12.24,12.24,0,0,1-1.37,2.2,11.92,11.92,0,0,1-1,1.16,13.5,13.5,0,0,1-1.68,1.43,12.27,12.27,0,0,1-1.7,1c-.48.23-1,.43-1.48.62s-.92.28-1.38.4a5.19,5.19,0,0,1-1,.19,8.44,8.44,0,0,1-2.07,0c-.09,0-.2,0-.19-.12s.11-.09.19-.1a5.75,5.75,0,0,0,1.35-.37,11.57,11.57,0,0,0,1.64-.76,13.11,13.11,0,0,0,3.74-3.38,17.35,17.35,0,0,0,1.29-2c.26-.47.5-.94.73-1.42.16-.32.3-.66.43-1,.19-.48.35-1,.54-1.43.11-.26.17-.53.26-.8A15.89,15.89,0,0,0,25,19.8c.08-.39.2-.78.25-1.18s.15-.82.21-1.24a19.56,19.56,0,0,0,.25-2.16c0-.4,0-.8.06-1.21a.4.4,0,0,1,.43-.44h3.19A.44.44,0,0,1,29.63,13.66Z"></path><path class="cls-9" d="M92.62,19.28a2.21,2.21,0,0,1,.76.51,4.53,4.53,0,0,1,1.32,1.8A5.06,5.06,0,0,1,95,23.44c0,2.91,0,5.82,0,8.73,0,.39,0,.41-.41.42H92.24c-.3,0-.35,0-.35-.34v-.62c0-.05,0-.11,0-.14s-.09,0-.13.06a4.57,4.57,0,0,1-1.9,1.05,6,6,0,0,1-2.72.1,5.14,5.14,0,0,1-2.34-1,3.66,3.66,0,0,1-1.26-1.76,4.71,4.71,0,0,1,0-2.58c0-.16,0-.37.15-.5a.17.17,0,0,1,0,.13,14.6,14.6,0,0,0-.19,1.88,3.45,3.45,0,0,0,1.23,2.59,4.56,4.56,0,0,0,2.15,1.07A5.47,5.47,0,0,0,91,31.86a6.29,6.29,0,0,0,.67-.48.27.27,0,0,1,.3-.1c.12.06.12.18.13.29s0,.4,0,.59.06.24.24.22a14.42,14.42,0,0,1,2.18,0c.23,0,.3,0,.31-.27a1.47,1.47,0,0,0,0-.21c0-2.83,0-5.67,0-8.5a4.49,4.49,0,0,0-2.14-3.91c-.08-.05-.19-.09-.21-.21A.09.09,0,0,1,92.62,19.28Z"></path><path class="cls-3" d="M42.61,30.11h.06c.12.72.25,1.43.36,2.15,0,.3,0,.33-.31.33-1.31,0-2.62,0-3.94,0-.2,0-.29-.06-.32-.27-.06-.45-.11-.9-.2-1.34s-.12-.91-.21-1.36c-.13-.6-.18-1.2-.28-1.8-.14-.86-.31-1.72-.42-2.58a13.66,13.66,0,0,1-.2-1.43c0-.08,0-.22-.11-.22s-.12.13-.14.22a15.63,15.63,0,0,1-.9,2.84c-.27.66-.59,1.29-.92,1.92a17.65,17.65,0,0,1-3.74,4.84,15.48,15.48,0,0,1-2.81,2.08,2.93,2.93,0,0,1-.65.35.08.08,0,0,1,0,0l0,0a17.94,17.94,0,0,0,4.32-3.33,18.4,18.4,0,0,0,2.3-3,17.41,17.41,0,0,0,.9-1.64q.41-.89.75-1.8c.23-.62.41-1.25.6-1.87a2.53,2.53,0,0,1,.24-.81c0-.05,0-.15.12-.13s.09.09.09.16a10.13,10.13,0,0,0,.23,1.73c.1.84.27,1.66.41,2.5.09.56.14,1.13.25,1.69s.13,1,.22,1.44.17,1.05.23,1.57c0,.17.07.23.23.23h4c.24,0,.24-.11.2-.3A14.39,14.39,0,0,1,42.61,30.11Z"></path><path class="cls-10" d="M83.64,26.91V26.8a4,4,0,0,1,1.7-2.2,5.54,5.54,0,0,1,1.57-.7,7.86,7.86,0,0,1,2.85-.27,9,9,0,0,1,1.69.26c.42.11.48,0,.44-.39A2.76,2.76,0,0,0,90,21.14a.06.06,0,0,1,0-.07.25.25,0,0,1,.25,0A2.92,2.92,0,0,1,92,23.17a4,4,0,0,1,.11.5c0,.31-.13.43-.44.41-.48,0-.94-.16-1.42-.21a10.09,10.09,0,0,0-2.33,0,5.61,5.61,0,0,0-2.46.85,3.84,3.84,0,0,0-1.62,2C83.81,26.79,83.8,26.92,83.64,26.91Z"></path><path class="cls-11" d="M92.62,19.28h-.11c-.27,0-.46-.18-.69-.26a6.47,6.47,0,0,0-4-.12,6,6,0,0,0-3.13,2,5.32,5.32,0,0,0-.82,1.45.46.46,0,0,0,0,.2.16.16,0,0,1,0,.07c-.18-.09-.12-.25-.07-.35s.2-.49.33-.72a6.08,6.08,0,0,1,3.78-2.84,7.31,7.31,0,0,1,2-.28,6.27,6.27,0,0,1,2.68.69A.93.93,0,0,1,92.62,19.28Z"></path><path class="cls-12" d="M27.88,35.78v.06a3.84,3.84,0,0,1-.79.45c-.32.16-.66.29-1,.43a14.82,14.82,0,0,1-1.58.56c-.3.09-.6.2-.91.27l-1.09.25c-.56.14-1.13.12-1.68.28a3.38,3.38,0,0,1-.9,0c0-.1.12-.08.19-.09.64-.1,1.29-.1,1.93-.23l1.08-.21c.55-.11,1.08-.28,1.62-.44a16.36,16.36,0,0,0,1.57-.59C26.86,36.32,27.36,36,27.88,35.78Z"></path><path class="cls-11" d="M90,21.09v.05a4.13,4.13,0,0,0-1.35-.2,4,4,0,0,0-3.43,1.94c-.17.26-.22.27-.5.16a5.68,5.68,0,0,1-1-.39l0,0c.25-.08.44.08.66.14a.48.48,0,0,1,.16.08c.3.13.35.12.54-.14a4.51,4.51,0,0,1,1.47-1.38,4,4,0,0,1,2.76-.48l.28,0C89.82,20.9,90,20.93,90,21.09Z"></path><path class="cls-13" d="M55.09,19.13v-.06a4.17,4.17,0,0,1,1.24-.44c.32-.08.67-.07,1-.13a6,6,0,0,1,1.74.09,7.84,7.84,0,0,1,2.25.7.49.49,0,0,1,.17.15,0,0,0,0,1,0,.07,2.26,2.26,0,0,1-.76-.29,7.56,7.56,0,0,0-2.29-.53,7.24,7.24,0,0,0-3,.38C55.34,19.11,55.23,19.2,55.09,19.13Z"></path><path class="cls-13" d="M61.72,13.71h.08a.46.46,0,0,1,.07.34c0,1.7,0,3.39,0,5.09a.61.61,0,0,1-.05.3c-.07.13-.17.22-.31.06.15-.08.14-.22.14-.36v-5a.65.65,0,0,1,0-.28A.12.12,0,0,1,61.72,13.71Z"></path><path class="cls-6" d="M61.68,13.82c0,1.8,0,3.61,0,5.41,0,.13,0,.25-.17.27a0,0,0,0,1,0,0v0c.21,0,.15-.18.15-.3v-5C61.63,14,61.6,13.9,61.68,13.82Z"></path><path class="cls-1" d="M76,26.2H71.34c-.37,0-.38,0-.33.39a3.66,3.66,0,0,0,2.07,2.74,5.72,5.72,0,0,0,3.13.46,5,5,0,0,0,1.07-.24,7.17,7.17,0,0,0,.91-.36,4.33,4.33,0,0,0,1.26-.94c.32-.36.31-.34.75-.14a4.94,4.94,0,0,0,.49.19c.18.05.18.13.13.26A6.25,6.25,0,0,1,78.3,31.7a5.83,5.83,0,0,1-1.88.75,8,8,0,0,1-1.6.18A7.55,7.55,0,0,1,72,32.1a7,7,0,0,1-2.56-1.68,6.37,6.37,0,0,1-1.3-2,7.31,7.31,0,0,1-.18-5.26A6.82,6.82,0,0,1,69.15,21a6.55,6.55,0,0,1,1.41-1.27,6,6,0,0,1,1.78-.84,8.21,8.21,0,0,1,1.31-.26,6.92,6.92,0,0,1,2.27.08,5.68,5.68,0,0,1,3.28,1.84,6.26,6.26,0,0,1,.85,1.25,7.6,7.6,0,0,1,.59,1.45,8,8,0,0,1,.26,1.2A9.51,9.51,0,0,1,81,26c0,.2-.06.24-.25.24Z"></path><path class="cls-1" d="M61.48,19.49h0c.24.12.27,0,.27-.21V16.35c0-.88,0-1.75,0-2.63a.49.49,0,0,1,.29-.05h2.5c.34,0,.35,0,.35.35V31.89a1.38,1.38,0,0,0,0,.29c.06.22,0,.3-.25.3H62c-.16,0-.28,0-.27-.23a11.62,11.62,0,0,1,0-1.18c0-.09,0-.2-.05-.26s-.18.05-.24.12a4,4,0,0,1-1,.86,6.41,6.41,0,0,1-1.46.66,6.27,6.27,0,0,1-2,.24,5.52,5.52,0,0,1-5-3.22,8.79,8.79,0,0,1-.59-2,12.69,12.69,0,0,1-.12-2.61,6.83,6.83,0,0,1,.25-1.49A6.16,6.16,0,0,1,52,22.15a7.17,7.17,0,0,1,.81-1.29,6.09,6.09,0,0,1,2.26-1.73,7.54,7.54,0,0,1,2.3-.52,7.66,7.66,0,0,1,2.57.27A6.45,6.45,0,0,1,61.48,19.49Z"></path><path class="cls-1" d="M90,21.09a3.05,3.05,0,0,0-1.69-.22,5.94,5.94,0,0,0-1,.21,4.18,4.18,0,0,0-1.78,1.23c-.15.18-.27.37-.41.55s-.3.19-.62,0a3.07,3.07,0,0,0-.72-.25.23.23,0,0,1,0-.26,5.8,5.8,0,0,1,1.58-2.24,6.79,6.79,0,0,1,2-1.15,7.21,7.21,0,0,1,2.1-.39,5.91,5.91,0,0,1,1.77.2,5.66,5.66,0,0,1,1.25.51,4.9,4.9,0,0,1,1.95,2,4.09,4.09,0,0,1,.42,1.46,8.77,8.77,0,0,1,.05,1v8.37c0,.26-.06.34-.33.31-.62-.07-1.25,0-1.88,0h-.15c-.53,0-.53,0-.53-.53V31.6c0-.1,0-.23-.07-.28s-.2.07-.28.14a4.85,4.85,0,0,1-2.64,1.17,6.48,6.48,0,0,1-1.76,0,5.58,5.58,0,0,1-2-.68,3.76,3.76,0,0,1-1.54-1.57,3.35,3.35,0,0,1-.37-1.4,8.26,8.26,0,0,1,.22-2.05c.08,0,.09-.1.11-.16a4,4,0,0,1,1.7-2.11,5.05,5.05,0,0,1,1.92-.76,8.83,8.83,0,0,1,2.81-.1c.52.07,1,.19,1.56.25.22,0,.33-.06.3-.31a3.06,3.06,0,0,0-.74-1.81,4,4,0,0,0-1-.78A.45.45,0,0,0,90,21.09Z"></path><path class="cls-14" d="M74.47,24.28H71.38c-.42,0-.42,0-.34-.44A3.54,3.54,0,0,1,72.2,21.9,3.44,3.44,0,0,1,74.07,21a3.32,3.32,0,0,1,2.72.85,3.26,3.26,0,0,1,.93,1.41,3.58,3.58,0,0,1,.19.66c0,.26,0,.32-.27.32Z"></path><path class="cls-15" d="M61.78,25.46c0,.88,0,1.77,0,2.65a.71.71,0,0,1-.3.64,8.27,8.27,0,0,1-1.36.78,3.93,3.93,0,0,1-2.21.25,3.15,3.15,0,0,1-2.15-1.35,4.44,4.44,0,0,1-.84-2.73c0-.3,0-.6,0-.9A3.8,3.8,0,0,1,56.35,22a3.69,3.69,0,0,1,2.06-.74,4.61,4.61,0,0,1,2.2.39,3.27,3.27,0,0,1,1,.68.55.55,0,0,1,.17.44C61.78,23.66,61.78,24.56,61.78,25.46Z"></path><path class="cls-16" d="M92,27.8v1.36a.53.53,0,0,1-.3.54,5.53,5.53,0,0,1-3.29.63,2.42,2.42,0,0,1-1.83-1,2.08,2.08,0,0,1-.28-1.42A2.38,2.38,0,0,1,87.62,26a4.15,4.15,0,0,1,2.46-.43,8.19,8.19,0,0,1,1.2.23,2.55,2.55,0,0,1,.55.19.41.41,0,0,1,.21.41Z"></path><path class="cls-17" d="M74.47,24.13h-3c-.32,0-.4-.08-.3-.38a4.67,4.67,0,0,1,.53-1.13,3.34,3.34,0,0,1,3.42-1.45,3,3,0,0,1,2,1.19A3.77,3.77,0,0,1,77.8,24c0,.21-.1.18-.21.18H74.47Z"></path><path class="cls-17" d="M61.63,25.5c0,.85,0,1.7,0,2.55a.87.87,0,0,1-.49.84,4.54,4.54,0,0,1-1.32.66,3.9,3.9,0,0,1-1.92.14,3.36,3.36,0,0,1-1.6-.79,3.64,3.64,0,0,1-.83-1.15,5.15,5.15,0,0,1-.49-2.7,4,4,0,0,1,.93-2.54,3.34,3.34,0,0,1,1.75-1,4.45,4.45,0,0,1,1.85-.07,4.37,4.37,0,0,1,1.88.83.57.57,0,0,1,.23.49C61.63,23.64,61.63,24.57,61.63,25.5Z"></path><path class="cls-17" d="M91.89,27.81v1.47a.33.33,0,0,1-.21.33,5.25,5.25,0,0,1-3.22.64,2.14,2.14,0,0,1-1.82-1.11,2,2,0,0,1-.15-1.55,2.32,2.32,0,0,1,.88-1.33,3.31,3.31,0,0,1,1.43-.58,5.93,5.93,0,0,1,2.37.16c.18.05.35.13.53.17s.19.18.19.33Z"></path></g></g></svg>